<?xml version="1.0" standalone="no"?>
<!DOCTYPE svg PUBLIC "-//W3C//DTD SVG 1.1//EN" "http://www.w3.org/Graphics/SVG/1.1/DTD/svg11.dtd" >
<svg xmlns="http://www.w3.org/2000/svg" xmlns:xlink="http://www.w3.org/1999/xlink" version="1.1">
<metadata></metadata>
<defs>
<font id="merriweatheritalic" horiz-adv-x="0" >
<font-face units-per-em="2048" ascent="1638" descent="-410" />
<missing-glyph horiz-adv-x="383" />
<glyph />
<glyph unicode="&#xd;" />
<glyph />
<glyph />
<glyph unicode="&#x9;" />
<glyph unicode="&#xa;" />
<glyph />
<glyph />
<glyph />
<glyph />
<glyph />
<glyph />
<glyph />
<glyph unicode=" "  horiz-adv-x="383" />
<glyph unicode="&#x09;" horiz-adv-x="383" />
<glyph unicode="&#xa0;" horiz-adv-x="383" />
<glyph unicode="!" horiz-adv-x="542" d="M107 69q0 35 18.5 65.5t47.5 48.5t61 18q49 0 73 -24t24 -62q0 -10 -1 -15q-5 -34 -24.5 -61t-48.5 -41.5t-61 -14.5q-40 0 -64.5 23t-24.5 63zM201 387l107 1018h197l-193 -1018h-111z" />
<glyph unicode="&#x22;" horiz-adv-x="795" d="M197 763l61 570h182l-130 -570h-113zM577 763l61 570h182l-130 -570h-113z" />
<glyph unicode="#" horiz-adv-x="1109" d="M88 288l7 103h177l50 317h-173l7 102h182l42 262h132l-40 -262h244l44 262h132l-43 -262h183l-7 -102h-192l-50 -317h178l-7 -103h-188l-45 -288h-128l41 288h-245l-49 -288h-130l46 288h-168zM405 391h244l51 317h-244z" />
<glyph unicode="$" horiz-adv-x="951" d="M83 51l36 222h102l18 -147q35 -29 88 -44.5t106 -15.5q57 0 112 21.5t92 67.5t37 116q0 60 -27 106.5t-70 82t-110 76.5q-93 59 -144.5 98.5t-88.5 100.5t-37 143q0 94 44 166.5t120.5 116.5t170.5 54l23 145h143l-24 -147q71 -7 124.5 -24t83.5 -38l-37 -195h-95 l-28 130q-26 21 -74 34t-93 13q-47 0 -95.5 -20t-81.5 -64t-33 -112q0 -61 28 -107t71.5 -79.5t115.5 -78.5q87 -53 140 -94.5t89.5 -101t36.5 -136.5q0 -99 -46.5 -175t-127 -121.5t-181.5 -57.5l-27 -168h-142l27 167q-83 7 -152.5 27t-93.5 39z" />
<glyph unicode="%" horiz-adv-x="1509" d="M156 833q0 84 43.5 162t118.5 126t165 48q113 0 167 -62.5t54 -170.5q0 -88 -40.5 -168t-115.5 -129.5t-170 -49.5q-71 0 -121 31.5t-75.5 87t-25.5 125.5zM294 835q0 -77 27 -121t80 -44t89 42t52.5 102.5t16.5 115.5q0 75 -24 117t-74 42q-54 0 -92 -40.5t-56.5 -99.5 t-18.5 -114zM311 0l748 1209h128l-749 -1209h-127zM818 295q0 84 43 162t118 126.5t166 48.5q113 0 166.5 -63t53.5 -171q0 -88 -40.5 -168t-115.5 -129.5t-171 -49.5q-70 0 -120 31.5t-75 87t-25 125.5zM955 297q0 -77 26.5 -121t79.5 -44q54 0 90 42t53 102.5t17 115.5 q0 75 -24.5 117t-73.5 42q-56 0 -94 -40.5t-56 -99.5t-18 -114z" />
<glyph unicode="&#x26;" horiz-adv-x="1220" d="M40 290q0 77 36.5 135t95.5 101.5t146 88.5q-30 70 -50.5 150t-20.5 143q0 94 47.5 166t130 111t183.5 39q94 0 152 -31.5t84 -81.5t26 -108q0 -81 -45.5 -143.5t-111.5 -107.5t-177 -107l-51 -28q150 -267 326 -423q29 42 40.5 99.5t11.5 133.5q0 56 -18 110l-31 1 q-33 0 -64.5 -9t-53.5 -21v109q14 14 45.5 26.5t76.5 12.5q31 0 88 -9q26 -4 54.5 -7t53.5 -3q64 0 100 29t47 99h62q0 -119 -42.5 -185t-132.5 -66q-23 0 -44 3q4 -26 4 -55q0 -99 -33.5 -180t-95.5 -143q38 -28 70 -43q32 -12 70.5 -19.5t69.5 -8.5l-8 -68 q-42 -10 -74 -13t-69 -3q-50 0 -99 16.5t-90 47.5q-131 -62 -300 -62q-109 0 -201.5 32.5t-150 101t-57.5 170.5zM205 294q0 -74 35.5 -123t94 -73.5t130.5 -24.5q136 0 222 30q-75 69 -128.5 134t-91.5 122.5t-92 148.5l-17 29q-73 -53 -113 -111.5t-40 -131.5zM394 929 q0 -67 16.5 -130t39.5 -116q82 43 137.5 83.5t89.5 95t34 124.5q0 65 -27 110.5t-96 45.5q-59 0 -103 -28.5t-67.5 -76.5t-23.5 -108z" />
<glyph unicode="'" horiz-adv-x="416" d="M190 763l61 570h182l-130 -570h-113z" />
<glyph unicode="(" horiz-adv-x="675" d="M160 399q0 82 11 173q28 207 123 380t199.5 283.5t159.5 140.5l71 -47q-45 -29 -122.5 -125t-152.5 -250.5t-107 -342.5q-16 -120 -16 -207q0 -158 36 -286t83.5 -208.5t83.5 -110.5l-86 -52h-13q-44 30 -106.5 110.5t-113 219.5t-50.5 322z" />
<glyph unicode=")" horiz-adv-x="676" d="M-32 -201q45 29 122 125.5t152 250.5t107 342q16 120 16 207q0 158 -36 286t-83.5 208.5t-83.5 111.5l86 51h13q45 -30 107.5 -110t113 -219.5t50.5 -322.5q0 -81 -12 -173q-28 -207 -123 -380t-199.5 -283.5t-159.5 -140.5z" />
<glyph unicode="*" horiz-adv-x="1079" d="M218 776l256 103l88 29l-82 30l-235 103l92 132l193 -160l62 -59l-8 88l-6 265l154 -1l-61 -264l-26 -88l74 59l230 161l61 -133l-256 -103l-88 -30l82 -29l236 -103l-92 -132l-194 160l-64 61l9 -90l6 -265l-154 1l61 264l26 90l-73 -61l-230 -161z" />
<glyph unicode="+" horiz-adv-x="1077" d="M199 547l14 126h178l109 -9l10 131l22 181h142l-21 -181l-23 -130l91 8h201l-14 -126h-202l-88 5q-1 -38 -5 -77l-3 -52l-22 -191h-142l21 191l20 129l-111 -5h-177z" />
<glyph unicode="," horiz-adv-x="416" d="M-6 -333l2 16q60 33 102 97.5t42 149.5q0 51 -22 92.5t-53 54.5l1 35l124 98q63 -28 94.5 -93t31.5 -143q0 -85 -37.5 -160.5t-100 -130t-135.5 -80.5z" />
<glyph unicode="-" horiz-adv-x="1000" d="M184 547l14 126h662l-15 -126h-661z" />
<glyph unicode="." horiz-adv-x="416" d="M67 67q0 36 18 66.5t47.5 49t61.5 18.5q48 0 72 -23.5t24 -61.5q0 -39 -19 -69t-50 -47t-65 -17q-40 0 -64.5 22.5t-24.5 61.5z" />
<glyph unicode="/" horiz-adv-x="674" d="M-104 -286l680 1548h140l-682 -1548h-138z" />
<glyph unicode="0" horiz-adv-x="1009" d="M103 356q0 156 66 284.5t177 203t241 74.5q172 0 249.5 -97.5t77.5 -270.5q0 -149 -63 -278t-172.5 -207t-244.5 -78q-114 0 -188.5 49t-108.5 132.5t-34 187.5zM271 368q0 -128 45 -211t136 -83q96 0 162.5 68t99 174t32.5 219q0 140 -45 218.5t-141 78.5 q-106 0 -170.5 -74t-91.5 -180t-27 -210z" />
<glyph unicode="1" horiz-adv-x="725" d="M86 0l8 70l157 19l87 634q-95 -24 -197 -41l-12 76q76 17 166 63t164 97l70 -17l-114 -811l168 -20l-8 -70h-489z" />
<glyph unicode="2" horiz-adv-x="924" d="M28 63q251 124 407 268.5t156 288.5q0 93 -40 141t-130 48q-72 0 -134.5 -34t-124.5 -85l-43 72q60 61 154 108.5t209 47.5q287 0 287 -267q0 -151 -151.5 -296.5t-384.5 -262.5l431 38l76 118l82 -28l-64 -220h-716z" />
<glyph unicode="3" horiz-adv-x="850" d="M19 -250l12 92q61 -9 103 -9q105 0 198.5 35.5t150.5 101.5t57 155q0 93 -54 142.5t-171 50.5l-111 -27l12 93q81 17 158 54t129 94.5t52 131.5q0 75 -43.5 108.5t-110.5 33.5q-72 0 -131.5 -26t-123.5 -73l-34 80q30 29 83.5 59.5t125.5 51t151 20.5q71 0 129.5 -24 t94.5 -74t36 -124q0 -69 -41.5 -131.5t-108 -111t-141.5 -74.5l24 1q139 0 197.5 -62t58.5 -166q0 -116 -83 -211t-216.5 -148t-273.5 -53q-52 0 -129 10z" />
<glyph unicode="4" horiz-adv-x="988" d="M27 74q106 136 252.5 376.5t300.5 541.5h29l126 -72q-57 -106 -183 -292.5t-312 -452.5l-79 -95l397 22l40 318l156 47l-44 -352l197 11l-17 -126h-196l-37 -296h-153l39 296h-487z" />
<glyph unicode="5" horiz-adv-x="875" d="M30 -260l11 73q29 -5 63 -5q118 0 224.5 46t171.5 126.5t65 176.5q0 76 -22 121.5t-67 66t-119 20.5q-80 0 -205 -43l-39 31l134 552h450l17 13h110l-46 -148h-422l-91 -335q38 11 87.5 17.5t88.5 6.5q88 0 158 -30t111 -93.5t41 -160.5q0 -136 -90.5 -238.5t-233 -156 t-292.5 -53.5q-66 0 -105 13z" />
<glyph unicode="6" horiz-adv-x="982" d="M107 371q0 190 88.5 370.5t243 313.5t345.5 186l24 -69q-114 -43 -213.5 -125t-172.5 -184.5t-110 -207.5q46 49 119.5 82.5t163.5 33.5q96 0 160.5 -40.5t95 -109t30.5 -154.5q0 -125 -56.5 -236t-158.5 -179t-231 -68q-105 0 -179 50.5t-111.5 138.5t-37.5 198z M274 354q0 -129 45.5 -206.5t150.5 -77.5q81 0 135.5 55.5t79.5 137.5t25 165q0 78 -19 132.5t-54.5 83t-81.5 28.5q-71 0 -122.5 -22.5t-81 -49.5t-56.5 -60q-21 -97 -21 -186z" />
<glyph unicode="7" horiz-adv-x="865" d="M85 642l49 263h706l25 -34l-476 -1125l-167 53l517 985h-481l-68 -145z" />
<glyph unicode="8" horiz-adv-x="934" d="M83 264q0 121 81 215.5t224 157.5q-167 136 -167 285q0 86 48 155t132.5 108t189.5 39q87 0 154 -30t105 -87.5t38 -135.5q0 -107 -71 -186.5t-194 -142.5q93 -65 153 -152.5t60 -181.5q0 -101 -58 -174.5t-152 -111.5t-200 -38q-87 0 -165.5 30t-128 93.5t-49.5 156.5z M254 290q0 -66 23 -116t67.5 -77.5t105.5 -27.5q62 0 112.5 27t80 76.5t29.5 111.5q0 83 -59 155t-171 146q-86 -40 -136.5 -119t-51.5 -176zM374 936q0 -73 47 -131.5t134 -120.5q81 36 128.5 109.5t47.5 165.5q0 91 -44 139t-113 48q-55 0 -101 -28t-72.5 -75.5 t-26.5 -106.5z" />
<glyph unicode="9" horiz-adv-x="983" d="M104 452q0 113 52.5 220.5t153 176.5t238.5 69q105 0 179 -49.5t112 -135t38 -192.5q0 -197 -88.5 -380t-243.5 -316t-347 -185l-23 69q113 43 214 126t175.5 186t112.5 208q-48 -51 -124 -85t-164 -34q-97 0 -161 46t-94 119t-30 157zM266 487q0 -80 22.5 -138t60 -88.5 t80.5 -30.5q94 0 155.5 40t103.5 93q10 41 15.5 93.5t5.5 100.5q0 119 -45.5 197t-149.5 78q-81 0 -137 -54t-83.5 -134.5t-27.5 -156.5z" />
<glyph unicode=":" horiz-adv-x="416" d="M52 67q0 36 18 66.5t47.5 49t61.5 18.5q48 0 72 -23.5t24 -61.5q0 -39 -19 -69t-50 -47t-65 -17q-40 0 -64.5 22.5t-24.5 61.5zM125 706q0 36 18 66.5t47.5 49t61.5 18.5q48 0 72 -23.5t24 -61.5q0 -39 -19 -69t-50 -47t-65 -17q-40 0 -64.5 22.5t-24.5 61.5z" />
<glyph unicode=";" horiz-adv-x="416" d="M-20 -333l2 16q60 33 102 97.5t42 149.5q0 51 -22 92.5t-53 54.5l1 35l124 98q63 -28 94.5 -93t31.5 -143q0 -85 -37.5 -160.5t-100 -130t-135.5 -80.5zM127 706q0 36 18 66.5t47.5 49t61.5 18.5q48 0 72 -23.5t24 -61.5q0 -39 -19 -69t-50 -47t-65 -17q-40 0 -64.5 22.5 t-24.5 61.5z" />
<glyph unicode="&#x3c;" horiz-adv-x="1080" d="M154 542l13 101l797 403l-19 -156l-626 -297l556 -297l-18 -157z" />
<glyph unicode="=" horiz-adv-x="839" d="M63 267l14 125h644l-14 -125h-644zM118 670l15 125h644l-15 -125h-644z" />
<glyph unicode="&#x3e;" horiz-adv-x="1080" d="M198 141l18 156l626 297l-556 297l18 157l703 -403l-12 -101z" />
<glyph unicode="?" horiz-adv-x="803" d="M205 570q0 67 58 121.5t168 107.5l18 8q52 25 82.5 42.5t61 44.5t55.5 67q7 29 7 67q0 87 -37 149.5t-102.5 94.5t-148.5 32q-33 0 -71.5 -6t-68.5 -21l23 113q17 18 65.5 30.5t97.5 12.5q138 0 222.5 -46t121 -121t36.5 -166q0 -99 -43 -173q-24 -42 -59.5 -76 t-72.5 -58t-91 -56q-11 -7 -33 -20q-47 -27 -77 -51t-48 -54.5t-18 -68.5q-1 -39 2 -77t7 -60l-102 -39h-13q-17 27 -28.5 85t-11.5 118zM231 67q0 36 18 66.5t47 49t62 18.5q48 0 72 -23.5t24 -61.5q0 -39 -19 -69t-50 -47t-65 -17q-40 0 -64.5 22.5t-24.5 61.5z" />
<glyph unicode="@" horiz-adv-x="1555" d="M92 264q0 279 115.5 497.5t311.5 339t428 120.5q160 0 279.5 -60t185 -173.5t65.5 -269.5q0 -209 -74 -369t-186.5 -246.5t-222.5 -86.5q-34 0 -50 19.5t-19.5 51t-3.5 90.5q0 62 23 161q-59 -140 -140.5 -236t-163.5 -96q-57 0 -107.5 36.5t-82 112.5t-31.5 188 q0 122 48 242.5t145 199t236 78.5q39 0 91 -11t82 -31l132 24q-23 -91 -49 -250t-38 -278q-5 -56 -5 -95q0 -36 4 -61q3 -31 13 -31q65 0 129.5 80t106 204t41.5 248q0 164 -66.5 265.5t-173.5 145.5t-237 44q-205 0 -355.5 -112.5t-229 -295.5t-78.5 -387 q0 -289 129.5 -420t368.5 -131q69 0 156 15.5t127 34.5l25 -67q-56 -43 -142.5 -67.5t-186.5 -24.5q-187 0 -321.5 66t-206.5 200t-72 336zM562 353q0 -99 25 -158t81 -59q51 0 120 98t125 232t67 228q-19 33 -63 51.5t-82 18.5q-102 0 -163 -61.5t-85.5 -153.5t-24.5 -196z " />
<glyph unicode="A" horiz-adv-x="1060" d="M-95 0l7 69l94 23l559 1110h162l200 -1108l123 -25l-6 -69h-406l3 69l124 23l-40 252h-448l-118 -252l126 -23l-5 -69h-375zM322 440h388l-82 534l-9 96z" />
<glyph unicode="B" horiz-adv-x="1023" d="M22 0l7 69l117 23l127 1012l-105 19l10 79h181q30 0 66.5 2.5t48.5 3.5q81 6 126 6q117 0 196 -34.5t116.5 -91.5t38.5 -126v-11q0 -117 -59 -193q-62 -79 -178 -118q67 -10 119.5 -45t82 -91t29.5 -125q0 -134 -71.5 -221.5t-191.5 -128t-269 -40.5q-24 0 -58 2.5 t-47 2.5q-62 6 -98 6h-188zM307 100q19 -8 63 -11.5t77 -3.5q153 0 239.5 65.5t86.5 210.5q0 108 -55 160t-176 52q-100 0 -177 -6zM378 673q35 -1 58 -1h79q79 0 141.5 28t99 86.5t36.5 146.5q0 66 -22.5 107.5t-72.5 61.5t-135 20q-26 0 -65 -2t-63 -7z" />
<glyph unicode="C" horiz-adv-x="967" d="M73 514q0 205 79.5 365t214 248t292.5 88q93 0 158 -10.5t122 -25.5l30 -9l-52 -291h-96l-19 207q-25 17 -62.5 26.5t-101.5 9.5q-137 0 -226 -94t-129 -231t-40 -272q0 -114 27.5 -215t87.5 -165t152 -64q62 0 124 20.5t85 61.5q9 24 27 77t27 78h98l-32 -260l-20 -7 q-76 -27 -156.5 -45.5t-184.5 -18.5q-141 0 -231.5 76t-132 195.5t-41.5 255.5z" />
<glyph unicode="D" horiz-adv-x="1132" d="M21 0l7 69l117 23l128 1012l-105 19l10 79h234q31 0 99 7q74 6 114 6q238 0 348 -133t110 -373q0 -204 -78 -371q-77 -167 -219 -261q-136 -90 -308 -90h-15q-50 2 -89 6q-33 3 -78.5 5t-78.5 2h-196zM308 104q32 -11 90.5 -17t103.5 -7q141 9 234.5 99.5t137 227.5 t43.5 291q0 158 -34 250.5t-107.5 133.5t-196.5 41q-33 0 -77.5 -5t-67.5 -11z" />
<glyph unicode="E" horiz-adv-x="973" d="M20 0l8 69l118 23l127 1012l-106 19l10 79h738l-7 -246h-87l-37 149l-346 12l-56 -442l353 7l-10 -126l-353 14l-65 -478l432 19l94 167l86 -24l-70 -254h-829z" />
<glyph unicode="F" horiz-adv-x="919" d="M22 0l6 70l118 22l127 1012l-106 19l10 79h771l-18 -247h-99l-23 145l-373 15l-53 -440l372 7l-11 -127l-371 14l-65 -475l213 -24l-6 -70h-492z" />
<glyph unicode="G" horiz-adv-x="1062" d="M79 514q0 205 79.5 365t213.5 248t292 88q106 0 179 -12.5t139 -31.5l31 -9l-46 -235h-104l-17 145q-28 24 -74 37t-126 13q-139 0 -228 -93.5t-129 -230.5t-40 -272q0 -114 28 -215.5t89.5 -165.5t156.5 -64q156 0 228 71l45 314l-184 14l11 92h353l-71 -498 q-22 -2 -47 -9t-30 -9q-28 -9 -26 -8q-95 -28 -169 -44.5t-157 -16.5q-136 0 -225.5 76t-130.5 195.5t-41 255.5z" />
<glyph unicode="H" horiz-adv-x="1215" d="M22 0l8 69l116 23l127 1012l-105 19l10 79h388l-9 -79l-122 -19l-55 -437h513l55 437l-119 19l8 79h391l-10 -79l-109 -19l-127 -1011l120 -24l-7 -69h-409l6 70l130 23l58 471h-513l-60 -472l125 -22l-6 -70h-404z" />
<glyph unicode="I" horiz-adv-x="559" d="M22 0l7 69l117 23l127 1012l-105 19l10 79h387l-9 -79l-121 -19l-128 -1012l125 -22l-6 -70h-404z" />
<glyph unicode="J" horiz-adv-x="573" d="M-120 -202q69 20 129 63.5t100 99t52 107.5q31 143 51.5 306.5t43.5 407.5q20 214 33 322l-111 19l11 79h387l-9 -79l-122 -18l-18 -171q-50 -460 -72 -645.5t-37 -229.5q-48 -148 -159.5 -228.5t-250.5 -103.5z" />
<glyph unicode="K" horiz-adv-x="1079" d="M22 0l7 69l117 23l127 1012l-105 19l10 79h387l-9 -79l-122 -19l-70 -560l483 560l-93 19l9 79h332l-11 -79l-82 -19l-415 -449l67 -115q104 -176 121 -204q75 -123 106 -168t55 -59l103 -35l-11 -74h-220q-23 3 -60 65.5t-88 164.5l-25 48q-78 151 -146 271l-144 -156 l-38 -301l125 -22l-6 -70h-404z" />
<glyph unicode="L" horiz-adv-x="933" d="M23 0l6 70l117 22l127 1012l-105 19l10 79h414l-9 -79l-149 -19l-127 -1012l367 9l110 262l94 -18l-76 -345h-779z" />
<glyph unicode="M" horiz-adv-x="1482" d="M-43 0l8 70l127 22l250 1012l-127 19l9 79h353l130 -824l12 -132l51 132q56 136 184 423q128 285 176 401h335l-9 -79l-130 -19l-20 -1011l122 -23l-8 -70h-421l7 70l140 22l29 711l23 319l-108 -281l-372 -843l-88 -12l-136 836l-48 298l-57 -306l-168 -722l148 -22 l-7 -70h-405z" />
<glyph unicode="N" horiz-adv-x="1199" d="M25 0l7 69l107 22l134 1013l-116 19l14 79h275l366 -868l56 -184l114 954l-119 19l9 79h358l-8 -79l-114 -19l-161 -1104h-154l-371 872l-49 176l-100 -956l128 -22l-8 -70h-368z" />
<glyph unicode="O" horiz-adv-x="1092" d="M94 507q0 202 71 364t196.5 254.5t279.5 92.5q132 0 221 -69t132 -186t43 -261q0 -203 -71 -367t-196 -257.5t-280 -93.5q-131 0 -220.5 70.5t-132.5 189t-43 263.5zM258 531q0 -134 28.5 -236t85.5 -159t140 -57q100 0 181.5 76.5t128 212.5t46.5 306q0 136 -28.5 236 t-85 154.5t-139.5 54.5q-101 0 -182 -75t-128 -209.5t-47 -303.5z" />
<glyph unicode="P" horiz-adv-x="978" d="M22 0l7 69l117 23l127 1012l-105 19l10 79h201q36 0 108 7q68 7 119 7q179 0 271.5 -79.5t92.5 -240.5q0 -147 -65.5 -252.5t-177 -160t-245.5 -54.5q-96 0 -134 3l-41 -340l158 -22l-6 -70h-437zM359 535q68 -11 131 -11q112 1 179.5 42.5t98.5 122.5t33 204v15 q-1 66 -17 111q-18 50 -64 76.5t-127 26.5q-31 0 -78 -4.5t-80 -12.5z" />
<glyph unicode="Q" horiz-adv-x="1097" d="M91 508q0 201 71 363.5t196 255t280 92.5q131 0 220.5 -69t132.5 -186t43 -262q0 -185 -60 -338.5t-167 -251t-243 -120.5q4 -58 34 -88t76 -38.5t115 -8.5q35 0 84.5 9.5t82.5 24.5l1 -109q-31 -26 -94.5 -46.5t-128.5 -20.5q-77 0 -140 24.5t-100.5 74t-37.5 120.5 q0 24 5 52q-123 7 -206.5 78.5t-123.5 187t-40 256.5zM255 532q0 -135 28.5 -236.5t85.5 -158.5t140 -57q100 0 181.5 76.5t128 212.5t46.5 306q0 136 -28.5 235.5t-85.5 154.5t-140 55q-100 0 -181.5 -75.5t-128 -209.5t-46.5 -303z" />
<glyph unicode="R" horiz-adv-x="1068" d="M37 0l7 69l102 23l127 1012l-105 19l10 79h215q31 0 94 7q64 6 95 6q136 0 220 -30t122.5 -91t38.5 -159q0 -94 -35 -171.5t-102 -133t-161 -82.5q33 -28 75 -97.5t71 -132.5l32 -71q38 -83 57 -114t44.5 -43.5t77.5 -12.5l-4 -77h-184q-23 0 -42.5 18.5t-44.5 66.5 t-60 138q-39 98 -66.5 158.5t-59.5 104t-66 44.5l-144 -1l-50 -437l146 -22l-6 -70h-404zM363 623q53 -3 131 -3q31 0 39 1q89 6 149 47t89 106.5t29 145.5q0 71 -19.5 114t-72 65t-149.5 22q-20 0 -63 -3t-66 -8z" />
<glyph unicode="S" horiz-adv-x="855" d="M43 51l33 223h95l19 -152q32 -22 82 -35t98 -13q57 0 114 22t95.5 69t38.5 116q0 57 -25.5 102.5t-67 81t-102.5 73.5q-80 50 -137 98t-94.5 113t-37.5 148q0 93 52 166t139.5 114t189.5 41q103 0 175 -20t113 -47l-37 -208h-86l-22 142q-25 18 -67.5 29.5t-89.5 11.5 q-50 0 -98 -19t-78.5 -58.5t-30.5 -97.5q0 -89 52.5 -153t150.5 -125q87 -55 138 -96t87 -100.5t36 -139.5q0 -108 -53.5 -188.5t-147.5 -123.5t-212 -43q-70 0 -136.5 10.5t-116.5 27t-69 31.5z" />
<glyph unicode="T" horiz-adv-x="974" d="M66 830l60 372h907l-53 -372h-87l5 270l-253 17l-131 -1025l197 -18l-6 -74h-553l8 74l192 18l131 1025l-250 -16l-76 -269z" />
<glyph unicode="U" horiz-adv-x="1091" d="M100 1123l10 79h388l-9 -79l-121 -19l-82 -621q-9 -83 -9 -139q0 -133 58 -202.5t164 -69.5q134 0 213.5 107t102.5 316l82 609l-106 19l8 79h343l-9 -79l-98 -19l-82 -609q-24 -184 -84.5 -296.5t-158 -163.5t-235.5 -51q-114 0 -194 43t-122 122.5t-44 188.5 q0 68 6 130l84 636z" />
<glyph unicode="V" horiz-adv-x="968" d="M56 1123l8 79h386l-8 -79l-120 -19l106 -748l22 -218l74 218l326 748l-107 19l7 79h328l-8 -79l-83 -18l-507 -1112l-140 -10l-187 1121z" />
<glyph unicode="W" horiz-adv-x="1412" d="M22 1123l10 79h373l-8 -79l-124 -15l93 -761l28 -209l45 157l271 716l-11 96l-94 16l9 79h381l-15 -79l-119 -17l82 -759l14 -209l59 180l321 786l-107 19l9 79h339l-12 -79l-96 -19l-473 -1112h-164l-90 806l-306 -806h-162l-156 1112z" />
<glyph unicode="X" horiz-adv-x="1024" d="M-50 0l9 70l96 22l394 514l-238 496l-109 21l8 79h412l-8 -79l-115 -19l158 -397l267 397l-111 19l10 79h372l-8 -79l-108 -19l-371 -490l262 -522l121 -22l-7 -70h-429l7 70l119 22l-185 415l-284 -415l117 -23l-6 -69h-373z" />
<glyph unicode="Y" horiz-adv-x="930" d="M47 1123l8 79h394l-10 -79l-127 -19l179 -440l28 -100l57 100l269 440l-110 19l8 79h330l-9 -79l-80 -19l-413 -637l-48 -375l155 -22l-6 -70h-480l7 70l170 22l48 375l-287 637z" />
<glyph unicode="Z" horiz-adv-x="941" d="M-4 70l641 887l132 155l-451 -6l-76 -196l-96 19l45 273h744l20 -68l-642 -897l-119 -152l501 20l101 202l97 -26l-73 -281h-803z" />
<glyph unicode="[" horiz-adv-x="675" d="M140 -39q0 45 3 87q7 120 30.5 288.5t64.5 425.5q43 274 61 410q11 79 30 121t55 60t99 18q31 0 77 -8t82.5 -17t46.5 -12l-10 -69h-218l-176 -1308l109 -1q37 -1 108 -1l-8 -70q-69 -19 -113.5 -28t-102.5 -9q-51 0 -81 10.5t-43.5 35t-13.5 67.5z" />
<glyph unicode="\" horiz-adv-x="674" d="M96 1262l455 -1548h139l-455 1548h-139z" />
<glyph unicode="]" horiz-adv-x="675" d="M25 -105l11 69h217l176 1309h-108q-38 1 -109 1l8 70q69 20 113.5 28.5t102.5 8.5q51 0 81 -10.5t43.5 -35t13.5 -67.5q0 -45 -3 -87q-7 -120 -30.5 -288.5t-64.5 -425.5q-43 -274 -61 -410q-11 -78 -30 -120.5t-55 -60.5t-99 -18q-31 0 -77 8t-82 17t-47 12z" />
<glyph unicode="^" horiz-adv-x="1076" d="M146 326l310 883h161l314 -883h-128l-266 715l-265 -715h-126z" />
<glyph unicode="_" horiz-adv-x="1054" d="M-88 -267l16 119h1089l-16 -119h-1089z" />
<glyph unicode="`" horiz-adv-x="427" d="M38 1260l122 117l228 -341l-53 -48q-32 14 -94.5 63t-120.5 108t-82 101z" />
<glyph unicode="a" horiz-adv-x="928" d="M65 325q0 129 62.5 268t180 232.5t270.5 93.5q37 0 78.5 -8t78.5 -20l96 27l-103 -769q-1 -6 -1 -16q0 -22 7 -33t17 -11q12 0 28 8t42 29l24 -43q-7 -13 -33.5 -37t-64.5 -43t-79 -19q-50 0 -78 26q-24 23 -25 67q0 7 1 14l5 52q-52 -67 -120 -113t-140 -46 q-127 0 -186.5 91.5t-59.5 249.5zM231 344q0 -247 113 -247q62 0 129 55t115 124l68 521q-39 25 -102 25q-105 0 -178 -75.5t-109 -186.5t-36 -216z" />
<glyph unicode="b" horiz-adv-x="939" d="M97 -16l156 1188l-75 34l16 67l194 31l40 -22l-65 -490q42 54 104 90.5t134 36.5q89 0 149.5 -43.5t90 -120.5t29.5 -178q0 -130 -62 -268.5t-177 -231.5t-266 -93q-45 0 -97.5 10.5t-91.5 24.5zM271 112q42 -31 118 -31q102 0 173.5 77t106.5 190t35 218q0 113 -35 176 t-97 63q-66 0 -128 -45.5t-100 -102.5z" />
<glyph unicode="c" horiz-adv-x="696" d="M60 340q0 129 55.5 264t161.5 225t251 90q43 0 92 -11t82 -27l-46 -157q-3 2 -18 13q-82 66 -147 66q-79 0 -137.5 -51.5t-91 -150.5t-32.5 -238q0 -135 42 -201t118 -66q56 0 99 19.5t113 70.5l32 -65q-43 -51 -117 -94t-173 -43q-89 0 -153 42.5t-97.5 122.5t-33.5 191 z" />
<glyph unicode="d" horiz-adv-x="933" d="M65 325q0 129 62.5 268t179.5 232.5t270 93.5q45 0 109 -14l40 266l-99 34l17 65l214 34l42 -22l-165 -1133q-1 -15 -1 -22q0 -38 19 -38q11 0 27 8t42 29l24 -42q-9 -14 -35.5 -38t-64 -43t-77.5 -19q-51 0 -75 26q-23 24 -22 75v8l-1 18q-43 -54 -106.5 -90.5 t-138.5 -36.5q-86 0 -145 43.5t-87.5 120t-28.5 177.5zM231 336q0 -114 33.5 -176.5t91.5 -62.5q63 0 126 42.5t102 96.5l84 552q-40 34 -114 34q-105 0 -178 -77t-109 -190t-36 -219z" />
<glyph unicode="e" horiz-adv-x="831" d="M67 340q4 149 66.5 282.5t168.5 215t233 81.5q74 0 125 -26t76 -70.5t25 -101.5q0 -113 -92.5 -192.5t-217 -120.5t-214.5 -45q-2 -20 -2 -32q0 -56 17.5 -110t56 -90t97.5 -36q65 0 134.5 28.5t132.5 87.5l37 -66q-25 -35 -73.5 -72t-114 -63t-137.5 -26q-108 0 -180 50 t-106 131q-32 76 -32 165v10zM241 450q69 3 152.5 35.5t143 90.5t59.5 132q-1 59 -27.5 88.5t-71.5 29.5q-74 0 -129 -62t-86.5 -149.5t-40.5 -164.5z" />
<glyph unicode="f" horiz-adv-x="553" d="M-165 -395l42 134q16 -8 60.5 -19.5t69.5 -11.5q36 0 59 51.5t35 139.5l109 900h-109l12 60l118 49l9 56q16 95 67 177t121.5 130t144.5 48q36 0 66.5 -4t58.5 -16l-47 -133q-24 17 -49 27.5t-61 10.5q-59 0 -94 -58.5t-49 -161.5l-9 -72h185l-14 -113h-186l-105 -839 q-13 -107 -55.5 -189.5t-107 -128.5t-141.5 -47h-19q-29 0 -56 2q-37 3 -55 8z" />
<glyph unicode="g" horiz-adv-x="913" d="M65 325q0 129 62.5 268t180 232.5t270.5 93.5q45 0 90 -9.5t82 -23.5l97 33l-152 -980q-18 -117 -87.5 -193.5t-160.5 -111.5t-179 -35q-50 0 -100 8t-75 19l40 147q40 -19 98 -34t113 -15q69 0 104 13t52.5 46.5t28.5 101.5l36 218q-44 -52 -105.5 -85.5t-133.5 -33.5 q-86 0 -145 43.5t-87.5 120t-28.5 177.5zM231 336q0 -113 33.5 -176t91.5 -63q64 0 126.5 42.5t102.5 97.5l80 554q-40 31 -111 31q-105 0 -178 -77t-109 -190.5t-36 -218.5z" />
<glyph unicode="h" horiz-adv-x="980" d="M92 0l153 1171l-94 34l13 65l215 34l41 -22l-74 -562q66 89 150.5 144t173.5 55q88 0 134 -55.5t46 -183.5q0 -51 -10.5 -117.5t-29.5 -163.5l-4 -22q-26 -151 -32 -229q-1 -30 3 -45t15 -15q13 0 31.5 9.5t51.5 34.5l25 -42q-8 -14 -37.5 -40t-71.5 -46t-86 -20 q-52 0 -78 25q-23 22 -23 69v11q3 38 9.5 84.5t20.5 121.5l9 55l6 29q17 91 27.5 162t10.5 130q0 53 -11.5 79.5t-30 34t-47.5 7.5q-60 0 -134.5 -55t-134.5 -141l-79 -596h-158z" />
<glyph unicode="i" horiz-adv-x="507" d="M110 814l14 64l242 41l38 -19l-109 -751q-2 -9 -2 -24q0 -36 20 -36q13 0 33 11.5t51 40.5l25 -42q-11 -17 -40 -44t-70 -49t-85 -22q-101 0 -101 92l1 13q4 52 14.5 124t34.5 231q37 245 49 329zM260 1187q0 31 17 58.5t44 44t54 16.5q44 0 71 -25.5t27 -63.5 q0 -31 -16.5 -59.5t-44.5 -45.5t-60 -17q-38 0 -65 27t-27 65z" />
<glyph unicode="j" horiz-adv-x="511" d="M-167 -380l29 65q9 -4 27.5 -7t27.5 -3q189 0 229 376l78 723l-124 40l15 64l250 41l38 -19l-103 -900q-16 -131 -65 -223t-124 -139t-166 -47q-38 0 -68 7.5t-44 21.5zM249 1187q0 31 17 58.5t44 44t54 16.5q44 0 71 -25.5t27 -63.5q0 -31 -16.5 -59.5t-44.5 -45.5 t-60 -17q-38 0 -65 27t-27 65z" />
<glyph unicode="k" horiz-adv-x="853" d="M81 0l153 1171l-93 34l13 65l215 34l41 -22l-171 -1282h-158zM315 482l2 1h-2q39 30 68 50q73 53 115.5 90t82.5 91q19 26 26.5 49.5t11 43t4.5 26.5q7 41 39 63.5t69 22.5q35 0 59.5 -23t24.5 -58q0 -42 -28 -84q-48 -69 -137 -134t-194 -129l204 -319 q22 -32 47.5 -53.5t43.5 -21.5q17 0 41 12t48 35l27 -48q-17 -26 -48.5 -52t-73 -43t-83.5 -17q-36 0 -68 21t-57 65z" />
<glyph unicode="l" horiz-adv-x="479" d="M111 91q0 31 4 61l145 1019l-97 34l16 65l212 34l38 -22l-159 -1133q-1 -8 -1 -23q0 -18 4.5 -27.5t13.5 -9.5q14 0 33.5 11t50.5 41l25 -42q-10 -16 -38.5 -43.5t-69 -49.5t-83.5 -22q-49 0 -71.5 25t-22.5 82z" />
<glyph unicode="m" horiz-adv-x="1489" d="M105 0l103 761l-78 46l14 71l195 41l38 -19l-15 -168q67 83 151.5 135t169.5 52q79 0 123 -45.5t51 -150.5q64 87 146.5 141.5t166.5 54.5q83 0 131.5 -58.5t48.5 -180.5q0 -42 -7 -94.5t-21 -139.5q-3 -16 -8 -46q-14 -87 -21.5 -142t-11.5 -109l-1 -18q0 -42 17 -42 q14 0 33 11t52 41l25 -42q-11 -18 -39.5 -44.5t-69 -48.5t-85.5 -22q-50 0 -74 25q-22 23 -22 71v8q2 51 10 111t23 157l7 38q15 87 23 153t8 123q0 53 -10 79.5t-27 34t-43 7.5q-56 0 -124.5 -53t-127.5 -135q-8 -94 -25 -204l-50 -399h-161l44 350q33 199 33 321 q0 54 -9.5 80t-27 33.5t-49.5 7.5q-58 0 -132.5 -54.5t-134.5 -137.5l-81 -600h-158z" />
<glyph unicode="n" horiz-adv-x="995" d="M105 0l103 761l-78 46l15 71l195 41l38 -19l-16 -168q67 83 152 135t169 52q87 0 133.5 -55.5t46.5 -183.5q0 -42 -8.5 -97t-23.5 -136q-7 -36 -9 -48q-15 -89 -23.5 -143.5t-10.5 -107.5q-1 -7 -1 -18q0 -21 4 -31.5t13 -10.5q24 0 69 37l24 -42q-7 -13 -34.5 -37.5 t-66 -43.5t-79.5 -19q-52 -1 -77 25q-22 23 -22 70v11q2 44 10.5 97.5t23.5 135.5l4 28q1 6 9 47q18 94 27 156.5t9 117.5q0 54 -11 80t-28.5 33.5t-50.5 7.5q-58 0 -132.5 -54.5t-134.5 -137.5l-81 -600h-158z" />
<glyph unicode="o" horiz-adv-x="904" d="M67 357q0 143 58.5 272.5t161.5 209.5t230 80q153 0 234.5 -98t81.5 -276q0 -143 -58 -272.5t-161.5 -209t-231.5 -79.5q-152 0 -233.5 97.5t-81.5 275.5zM236 366q0 -138 43.5 -211.5t130.5 -73.5q82 0 140 69.5t86 175.5t28 214q0 135 -44.5 208.5t-130.5 73.5 q-82 0 -139 -69.5t-85.5 -174.5t-28.5 -212z" />
<glyph unicode="p" horiz-adv-x="917" d="M29 -411l161 1185l-87 41l15 63l204 41l37 -19l-11 -104q41 53 101.5 88t131.5 35q88 0 148.5 -43.5t90.5 -120.5t30 -178q0 -130 -62 -268.5t-177.5 -231.5t-266.5 -93q-47 0 -105 12l-56 -407h-154zM255 108q40 -27 114 -27q102 0 173.5 77t106 190t34.5 218 q0 113 -35 176t-97 63q-61 0 -119 -40t-99 -93z" />
<glyph unicode="q" horiz-adv-x="914" d="M65 325q0 129 62.5 268t179.5 232.5t270 93.5q41 0 87.5 -9.5t83.5 -23.5l75 9l-150 -1140q-1 -5 -1 -15q0 -18 5.5 -31.5t12.5 -13.5q13 0 33 11.5t52 40.5l24 -42q-10 -16 -39.5 -43.5t-71.5 -49t-86 -21.5q-49 0 -72 25q-20 23 -20 69v12l52 403q-44 -51 -104.5 -83.5 t-131.5 -32.5q-86 0 -145 43.5t-87.5 120t-28.5 177.5zM231 336q0 -114 33.5 -176.5t91.5 -62.5q62 0 122.5 40t100.5 93l74 569q-39 23 -99 23q-105 0 -178 -77t-109 -190t-36 -219z" />
<glyph unicode="r" horiz-adv-x="661" d="M105 0l96 760l-79 47l15 71l194 41l38 -19l-17 -181q20 39 59.5 85.5t98.5 80t128 33.5q37 0 48 -10l-36 -169q-22 11 -81 11q-65 0 -129.5 -43t-105.5 -138l-71 -569h-158z" />
<glyph unicode="s" horiz-adv-x="686" d="M32 31l29 121q32 -22 90 -41t122 -19q67 0 111 22t44 91q0 40 -19 73.5t-47 59t-73 58.5q-63 46 -114 114t-51 152q0 76 42.5 134.5t112.5 90.5t152 32q60 0 120 -9.5t83 -19.5l-30 -134q-6 9 -31.5 23.5t-64 25.5t-83.5 11q-58 0 -99 -24t-47 -82q-1 -5 -1 -16 q0 -51 34 -95t92 -89q55 -42 90.5 -77.5t61 -85t25.5 -111.5q0 -79 -43 -136t-115.5 -86.5t-157.5 -29.5q-71 0 -141.5 14.5t-91.5 32.5z" />
<glyph unicode="t" horiz-adv-x="580" d="M103 802l16 69l97 37q24 27 53 86t54 125h78l-27 -207h205l-16 -110h-203l-65 -494q-14 -100 -14 -139q0 -30 5.5 -45.5t19.5 -21.5t42 -6t75 21.5t75 43.5l15 -61q-19 -24 -62 -51.5t-94.5 -46t-95.5 -18.5q-65 0 -104.5 33t-39.5 109q0 31 10 108l71 568h-95z" />
<glyph unicode="u" horiz-adv-x="955" d="M118 808l14 70l197 41l38 -19l-55 -435q-2 -19 -4 -34t-4 -27q-9 -62 -12.5 -100t-3.5 -78q0 -77 28 -105t84 -28q52 0 107 36.5t97 90.5l91 692h157l-98 -761q-3 -15 -3 -27q0 -33 20 -33q13 0 32 11t52 41l24 -43q-10 -15 -39.5 -43t-71.5 -49.5t-85 -21.5 q-45 0 -68.5 23t-23.5 64q0 14 4 35l-1 7q-113 -131 -262 -131q-97 0 -150 50t-53 167q0 45 6.5 106t20.5 165l41 289z" />
<glyph unicode="v" horiz-adv-x="835" d="M28 836q8 12 31 31.5t56.5 35.5t69.5 16q39 0 61 -12.5t32 -35.5t14 -60l54 -527l10 -147l88 129q51 82 85 146t61.5 137t43.5 158q1 13 1 19q0 16 -3.5 29.5t-9.5 33.5q-11 29 -11 44q0 42 21 64t57 22q51 0 77 -41.5t26 -117.5q0 -67 -36 -155.5t-84.5 -170.5 t-114.5 -185l-182 -255l-121 -10l-46 296l-77 481q-6 44 -31 44q-23 1 -49 -17z" />
<glyph unicode="w" horiz-adv-x="1343" d="M28 836q9 12 32.5 31.5t57 35.5t70.5 16q40 0 62.5 -12.5t32.5 -35.5t14 -60l42 -539l9 -147l61 136l274 651h142l50 -641l13 -146l85 130q25 37 63 114t69.5 168.5t36.5 169.5q0 21 -3 40t-10 40q-4 12 -7 24t-3 22q0 42 21 64t56 22q53 0 76.5 -40.5t23.5 -125.5 q0 -97 -63 -228t-155 -276l-161 -255l-148 -9l-31 295l-26 298l-7 112l-37 -113l-151 -319l-131 -264l-136 -10l-48 296l-68 481q-9 44 -33 44q-22 1 -49 -17z" />
<glyph unicode="x" horiz-adv-x="797" d="M-20 0l343 466l-145 303q-12 24 -22 34.5t-23 10.5q-15 0 -30 -10t-25 -23l-30 44q8 14 31 36t57 40t73 18q51 0 75.5 -19.5t38.5 -62.5l88 -274l232 349h171l-353 -473l158 -303q11 -24 20 -35t20 -11q13 0 31.5 11t50.5 40l28 -44q-7 -14 -35.5 -41.5t-69.5 -49.5 t-83 -22q-34 0 -54 10t-31.5 27.5t-21.5 45.5l-101 276l-224 -343h-169z" />
<glyph unicode="y" horiz-adv-x="846" d="M-100 -378l38 127q3 -2 21 -10.5t48.5 -15.5t64.5 -7q39 0 88 23.5t100.5 77.5t91.5 140h-76l-135 804q-4 23 -11.5 33.5t-20.5 10.5q-12 0 -25.5 -5.5t-38.5 -26.5l-23 47q9 13 35.5 37t62.5 43t74 19q56 0 78.5 -27t28.5 -81l32 -274l37 -306l16 -214l122 244 q21 50 47 104q36 78 56.5 129t34.5 112t14 127q0 20 -14 50q-7 19 -10 29.5t-3 23.5q0 42 21 62t57 20q103 0 103 -151q0 -73 -22.5 -150t-54 -144.5t-81.5 -163.5l-27 -52q-189 -379 -306 -522q-38 -54 -111 -94.5t-174 -40.5q-25 0 -69 7t-69 15z" />
<glyph unicode="z" horiz-adv-x="808" d="M-3 31l507 622l113 124h-325q-46 0 -74 -37.5t-37 -94.5h-66q0 42 7 97t20.5 101t35.5 60q14 9 26 13t38 4q70 0 253 -12q150 -11 205 -11q20 0 35 4.5t31 17.5l45 -48l-513 -637l-100 -110h323q55 0 94 37t47 91h66q-1 -40 -10 -94.5t-25.5 -100t-37.5 -59.5 q-11 -7 -31.5 -11.5t-48.5 -4.5q-67 0 -244 14q-149 12 -200 12q-16 0 -35.5 -4t-34.5 -13l-11 -9z" />
<glyph unicode="{" horiz-adv-x="805" d="M120 564l14 98q101 25 152 51q47 25 51 50l61 409q13 81 33 123t56 59t99 17q32 0 77.5 -8t81.5 -17t47 -12q-2 -8 -6 -34t-5 -35h-218l-76 -499q-4 -30 -23.5 -53t-53.5 -45q-14 -8 -57 -28.5t-58 -26.5q86 -45 113 -73q33 -34 33 -73q0 -8 -1 -13l-75 -497h217 q-2 -16 -5 -38.5t-4 -32.5q-68 -20 -113.5 -28.5t-103.5 -8.5q-51 0 -80.5 10.5t-42.5 35t-13 67.5q1 14 30.5 217.5t41.5 277.5q0 13 -11 27t-31 26q-25 17 -59.5 31t-70.5 23z" />
<glyph unicode="|" horiz-adv-x="674" d="M284 -147v1553h138v-1553h-138z" />
<glyph unicode="}" horiz-adv-x="805" d="M43 -113q2 9 6 34.5t5 35.5h218l76 498q4 30 23.5 53.5t53.5 44.5q14 9 57 29t58 26q-86 45 -113 73q-33 35 -33 73q0 8 1 13l75 498h-217q2 16 5 38.5t4 31.5q68 20 113.5 28.5t104.5 8.5q50 0 79.5 -10t42.5 -34.5t13 -68.5q-1 -14 -30.5 -217.5t-40.5 -277.5 q0 -13 10.5 -26.5t30.5 -26.5q25 -17 59.5 -31t70.5 -23l-14 -98q-101 -24 -152 -51q-47 -25 -51 -50l-61 -409q-13 -81 -33 -122.5t-56 -59t-99 -17.5q-32 0 -77.5 8t-81.5 17t-47 12z" />
<glyph unicode="~" horiz-adv-x="898" d="M118 671q14 39 50.5 77.5t88 63.5t108.5 25q31 0 58 -11t47.5 -25t51.5 -39q37 -31 61.5 -45.5t52.5 -14.5q97 0 160 92l56 -59q-11 -43 -47 -81.5t-88.5 -62t-110.5 -23.5q-44 0 -78.5 19.5t-77.5 55.5q-38 31 -62.5 45.5t-53.5 14.5q-97 0 -159 -92z" />
<glyph unicode="&#xa2;" horiz-adv-x="834" d="M106 340q0 114 44 235t128.5 212.5t201.5 120.5l41 165h118l-39 -155q39 -3 79.5 -13t68.5 -24l-46 -157q-4 2 -19 13q-81 66 -147 66q-78 0 -137 -51.5t-91 -150.5t-32 -238q0 -135 42 -201t118 -66q55 0 98.5 19.5t113.5 70.5l31 -65q-36 -44 -98.5 -83.5t-144.5 -50.5 l-29 -157h-119l30 162q-102 23 -157 113.5t-55 234.5z" />
<glyph unicode="&#xa3;" horiz-adv-x="1081" d="M-11 42q0 4 2 16q4 28 34 57.5t77 48.5t98 19q20 29 37 87.5t27 116.5q12 72 33 200h-140l14 105h143l13 82q18 117 79.5 219.5t155 165t203.5 62.5q76 0 123 -13t85 -52l-89 -136q-5 12 -32.5 33.5t-70 38.5t-92.5 17q-68 0 -124 -75.5t-82 -255.5q-3 -23 -14 -86h254 l-14 -105h-259l-6 -41q-15 -104 -33.5 -170t-42 -113t-63.5 -107q36 -10 99 -33q68 -24 115.5 -36.5t99.5 -12.5q124 0 176.5 44t52.5 137q0 31 -18.5 69.5t-38.5 56.5l110 103q49 -38 79 -96.5t30 -122.5q0 -113 -79.5 -197t-296.5 -84q-84 0 -164 20t-190 59l-47 17 q-32 -40 -82.5 -68t-98.5 -28q-27 0 -45 12.5t-18 45.5z" />
<glyph unicode="&#xa5;" horiz-adv-x="1171" d="M166 1123l9 79h399l-9 -79l-138 -13l182 -337l32 -89l53 94l237 332l-109 13l9 79h369l-9 -78l-107 -22l-334 -421h269l-12 -104h-326l-21 -176h327l-12 -104h-327l-24 -204l176 -23l-7 -70h-492l6 70l173 23l25 204h-324l12 104h324l21 176h-325l11 104h273l-238 428z " />
<glyph unicode="&#xa8;" horiz-adv-x="639" d="M47 1187q0 31 16 58.5t43 44t56 16.5q43 0 70.5 -25.5t27.5 -63.5q0 -31 -16.5 -59.5t-44.5 -45.5t-61 -17q-37 0 -64 27t-27 65zM380 1186q0 31 16 59t42.5 44.5t56.5 16.5q44 0 70.5 -25.5t26.5 -63.5q0 -31 -16.5 -59.5t-44 -45.5t-59.5 -17q-38 0 -65 27t-27 64z" />
<glyph unicode="&#xa9;" horiz-adv-x="1396" d="M140 637q0 162 80.5 299t217.5 216.5t299 79.5t299.5 -79.5t218 -216.5t80.5 -299q0 -163 -80.5 -300t-218 -217t-299.5 -80t-299 80t-217.5 217t-80.5 300zM235 637q0 -139 66.5 -257t182 -186.5t253.5 -68.5t253.5 68.5t182.5 186.5t67 257t-67 256t-182.5 186.5 t-253.5 69.5t-253.5 -69.5t-182 -186.5t-66.5 -256zM428 637q0 95 41 174.5t118 126.5t179 47q53 0 107 -8.5t77 -21.5v-163h-59l-43 95q-34 31 -114 31q-50 0 -91.5 -27t-66.5 -82t-25 -134q0 -102 31.5 -171.5t80 -102t99.5 -32.5q52 0 96.5 14t77.5 33l22 -54 q-36 -30 -100 -51.5t-131 -21.5q-93 0 -160.5 46.5t-103 125.5t-35.5 176z" />
<glyph unicode="&#xab;" horiz-adv-x="1474" d="M190 419l18 126l547 313l31 -92l-401 -280l326 -277l-57 -89zM723 419l18 126l547 313l31 -92l-401 -280l326 -277l-57 -89z" />
<glyph unicode="&#xad;" horiz-adv-x="1000" d="M184 547l14 126h662l-15 -126h-661z" />
<glyph unicode="&#xae;" horiz-adv-x="1396" d="M140 637q0 162 80.5 299t217.5 216.5t299 79.5t299.5 -79.5t218 -216.5t80.5 -299q0 -163 -80.5 -300t-218 -217t-299.5 -80t-299 80t-217.5 217t-80.5 300zM235 637q0 -139 66.5 -257t182 -186.5t253.5 -68.5t253.5 68.5t182.5 186.5t67 257t-67 256t-182.5 186.5 t-253.5 69.5t-253.5 -69.5t-182 -186.5t-66.5 -256zM452 296v59l65 16v525l-65 17v67h114l28 -1q12 0 50 1q83 4 110 4q118 0 183 -49.5t67 -133.5q0 -74 -40 -126t-145 -71q40 -22 65 -56t55 -89q20 -37 34.5 -58.5t31.5 -33.5q19 -9 52 -9v-62h-128q-17 0 -32.5 23 t-39.5 73t-43.5 84t-49 66t-66.5 49h-68v-220l80 -16v-59h-258zM630 661q32 -6 114 -6q39 0 70 17.5t47.5 47.5t16.5 64q0 65 -38.5 96.5t-107.5 31.5h-23q-45 0 -79 -8v-243z" />
<glyph unicode="&#xb4;" horiz-adv-x="441" d="M40 1036l250 341l114 -109q-15 -28 -74.5 -90t-127.5 -118t-111 -72z" />
<glyph unicode="&#xb8;" horiz-adv-x="378" d="M2 -345l12 119q10 -5 31 -8t41 -3q66 0 105 53.5t40 143.5q0 35 -7 64l38 3l43 -3q12 -16 18 -47t6 -68q0 -91 -29.5 -153t-80 -92.5t-114.5 -30.5q-32 0 -61 6t-42 16z" />
<glyph unicode="&#xbb;" horiz-adv-x="1474" d="M100 213l401 279l-326 277l56 89l464 -299l-17 -126l-548 -313zM634 213l401 279l-326 277l57 89l463 -299l-17 -126l-548 -313z" />
<glyph unicode="&#xc0;" horiz-adv-x="1060" d="M-95 0l7 69l94 23l559 1110h162l200 -1108l123 -25l-6 -69h-406l3 69l124 23l-40 252h-448l-118 -252l126 -23l-5 -69h-375zM322 440h388l-82 534l-9 96zM389 1485l106 96l208 -270l-54 -38q-40 15 -95.5 50t-102 79t-62.5 83z" />
<glyph unicode="&#xc1;" horiz-adv-x="1060" d="M-95 0l7 69l94 23l559 1110h162l200 -1108l123 -25l-6 -69h-406l3 69l124 23l-40 252h-448l-118 -252l126 -23l-5 -69h-375zM322 440h388l-82 534l-9 96zM591 1311l218 270l100 -96q-19 -41 -67 -84.5t-103.5 -78t-95.5 -49.5z" />
<glyph unicode="&#xc2;" horiz-adv-x="1060" d="M-95 0l7 69l94 23l559 1110h162l200 -1108l123 -25l-6 -69h-406l3 69l124 23l-40 252h-448l-118 -252l126 -23l-5 -69h-375zM322 440h388l-82 534l-9 96zM395 1329l243 252h140l167 -252l-56 -47l-189 180l-256 -179z" />
<glyph unicode="&#xc4;" horiz-adv-x="1060" d="M-95 0l7 69l94 23l559 1110h162l200 -1108l123 -25l-6 -69h-406l3 69l124 23l-40 252h-448l-118 -252l126 -23l-5 -69h-375zM322 440h388l-82 534l-9 96zM414 1454q0 30 17 57.5t43.5 44t53.5 16.5q44 0 70.5 -26t26.5 -63q0 -32 -17 -59.5t-44.5 -44.5t-59.5 -17 q-36 0 -63 27t-27 65zM745 1455q0 30 18 57.5t45 43.5t53 16q43 0 69.5 -25.5t26.5 -62.5q0 -32 -16.5 -60t-44 -45t-60.5 -17q-37 0 -64 27t-27 66z" />
<glyph unicode="&#xc5;" horiz-adv-x="1060" d="M-95 0l7 69l94 23l554 1101q-66 18 -101.5 63.5t-35.5 109.5t41.5 113t106 75.5t130.5 26.5q67 0 116.5 -22.5t76 -62t26.5 -89.5q0 -85 -54.5 -140t-137.5 -75l199 -1098l123 -25l-6 -69h-406l3 69l124 23l-40 252h-448l-118 -252l126 -23l-5 -69h-375zM322 440h388 l-82 534l-9 96zM537 1375q0 -53 32.5 -88t88.5 -35q64 0 106.5 37t42.5 111q0 30 -15 55t-42.5 40t-61.5 15q-39 0 -73.5 -16.5t-56 -47.5t-21.5 -71z" />
<glyph unicode="&#xc6;" horiz-adv-x="1436" d="M-130 0l12 69l121 23l554 1013l-230 18l11 79h1048l-7 -230h-87l-37 133l-314 12l-58 -448l317 19l-12 -132l-313 14l-58 -478l404 19l76 150l85 -24l-52 -237h-781l8 69l96 23l33 282h-375l-144 -282l150 -23l-5 -69h-442zM360 471h338l74 628l-90 4z" />
<glyph unicode="&#xc7;" horiz-adv-x="967" d="M73 495q-4 210 75 374.5t214.5 255t296.5 90.5q93 0 158 -10.5t122 -25.5l30 -9l-52 -291h-96l-19 207q-25 17 -62.5 26.5t-101.5 9.5q-137 0 -226 -94t-129 -231t-40 -272q0 -114 27.5 -215t87.5 -165t152 -64q62 0 124 20.5t85 61.5q9 24 27 77t27 78h98l-32 -260 q-2 -1 -17 -7q-64 -22 -125.5 -38t-141.5 -22q9 -35 9 -80q0 -91 -29 -153t-80 -93t-115 -31q-31 0 -60.5 6.5t-42.5 15.5l13 120q9 -5 30.5 -8t41.5 -3q66 0 104.5 53t39.5 143q0 18 -1 26q-133 4 -220.5 77t-129 187.5t-42.5 243.5z" />
<glyph unicode="&#xc8;" horiz-adv-x="973" d="M20 0l8 69l118 23l127 1012l-106 19l10 79h738l-7 -246h-87l-37 149l-346 12l-56 -442l353 7l-10 -126l-353 14l-65 -478l432 19l94 167l86 -24l-70 -254h-829zM337 1485l106 96l208 -270l-54 -38q-40 15 -95.5 50t-102 79t-62.5 83z" />
<glyph unicode="&#xc9;" horiz-adv-x="973" d="M20 0l8 69l118 23l127 1012l-106 19l10 79h738l-7 -246h-87l-37 149l-346 12l-56 -442l353 7l-10 -126l-353 14l-65 -478l432 19l94 167l86 -24l-70 -254h-829zM539 1311l218 270l100 -96q-19 -41 -67 -84.5t-103.5 -78t-95.5 -49.5z" />
<glyph unicode="&#xca;" horiz-adv-x="973" d="M20 0l8 69l118 23l127 1012l-106 19l10 79h738l-7 -246h-87l-37 149l-346 12l-56 -442l353 7l-10 -126l-353 14l-65 -478l432 19l94 167l86 -24l-70 -254h-829zM342 1329l243 252h140l167 -252l-56 -47l-189 180l-256 -179z" />
<glyph unicode="&#xcb;" horiz-adv-x="973" d="M20 0l8 69l118 23l127 1012l-106 19l10 79h738l-7 -246h-87l-37 149l-346 12l-56 -442l353 7l-10 -126l-353 14l-65 -478l432 19l94 167l86 -24l-70 -254h-829zM361 1454q0 30 17 57.5t43.5 44t53.5 16.5q44 0 70.5 -26t26.5 -63q0 -32 -17 -59.5t-44.5 -44.5t-59.5 -17 q-36 0 -63 27t-27 65zM692 1455q0 30 18 57.5t45 43.5t53 16q43 0 69.5 -25.5t26.5 -62.5q0 -32 -16.5 -60t-44 -45t-60.5 -17q-37 0 -64 27t-27 66z" />
<glyph unicode="&#xcc;" horiz-adv-x="559" d="M22 0l7 69l117 23l127 1012l-105 19l10 79h387l-9 -79l-121 -19l-128 -1012l125 -22l-6 -70h-404zM135 1485l106 96l208 -270l-54 -38q-40 15 -95.5 50t-102 79t-62.5 83z" />
<glyph unicode="&#xcd;" horiz-adv-x="559" d="M22 0l7 69l117 23l127 1012l-105 19l10 79h387l-9 -79l-121 -19l-128 -1012l125 -22l-6 -70h-404zM337 1311l218 270l100 -96q-19 -41 -67 -84.5t-103.5 -78t-95.5 -49.5z" />
<glyph unicode="&#xce;" horiz-adv-x="559" d="M22 0l7 69l117 23l127 1012l-105 19l10 79h387l-9 -79l-121 -19l-128 -1012l125 -22l-6 -70h-404zM141 1329l243 252h140l167 -252l-56 -47l-189 180l-256 -179z" />
<glyph unicode="&#xcf;" horiz-adv-x="559" d="M22 0l7 69l117 23l127 1012l-105 19l10 79h387l-9 -79l-121 -19l-128 -1012l125 -22l-6 -70h-404zM160 1454q0 30 17 57.5t43.5 44t53.5 16.5q44 0 70.5 -26t26.5 -63q0 -32 -17 -59.5t-44.5 -44.5t-59.5 -17q-36 0 -63 27t-27 65zM491 1455q0 30 18 57.5t45 43.5t53 16 q43 0 69.5 -25.5t26.5 -62.5q0 -32 -16.5 -60t-44 -45t-60.5 -17q-37 0 -64 27t-27 66z" />
<glyph unicode="&#xd2;" horiz-adv-x="1092" d="M94 507q0 202 71 364t196.5 254.5t279.5 92.5q132 0 221 -69t132 -186t43 -261q0 -203 -71 -367t-196 -257.5t-280 -93.5q-131 0 -220.5 70.5t-132.5 189t-43 263.5zM258 531q0 -134 28.5 -236t85.5 -159t140 -57q100 0 181.5 76.5t128 212.5t46.5 306q0 136 -28.5 236 t-85 154.5t-139.5 54.5q-101 0 -182 -75t-128 -209.5t-47 -303.5zM388 1485l106 96l208 -270l-54 -38q-40 15 -95.5 50t-102 79t-62.5 83z" />
<glyph unicode="&#xd3;" horiz-adv-x="1092" d="M94 507q0 202 71 364t196.5 254.5t279.5 92.5q132 0 221 -69t132 -186t43 -261q0 -203 -71 -367t-196 -257.5t-280 -93.5q-131 0 -220.5 70.5t-132.5 189t-43 263.5zM258 531q0 -134 28.5 -236t85.5 -159t140 -57q100 0 181.5 76.5t128 212.5t46.5 306q0 136 -28.5 236 t-85 154.5t-139.5 54.5q-101 0 -182 -75t-128 -209.5t-47 -303.5zM590 1311l218 270l100 -96q-19 -41 -67 -84.5t-103.5 -78t-95.5 -49.5z" />
<glyph unicode="&#xd4;" horiz-adv-x="1092" d="M94 507q0 202 71 364t196.5 254.5t279.5 92.5q132 0 221 -69t132 -186t43 -261q0 -203 -71 -367t-196 -257.5t-280 -93.5q-131 0 -220.5 70.5t-132.5 189t-43 263.5zM258 531q0 -134 28.5 -236t85.5 -159t140 -57q100 0 181.5 76.5t128 212.5t46.5 306q0 136 -28.5 236 t-85 154.5t-139.5 54.5q-101 0 -182 -75t-128 -209.5t-47 -303.5zM394 1329l243 252h140l167 -252l-56 -47l-189 180l-256 -179z" />
<glyph unicode="&#xd6;" horiz-adv-x="1092" d="M94 507q0 202 71 364t196.5 254.5t279.5 92.5q132 0 221 -69t132 -186t43 -261q0 -203 -71 -367t-196 -257.5t-280 -93.5q-131 0 -220.5 70.5t-132.5 189t-43 263.5zM258 531q0 -134 28.5 -236t85.5 -159t140 -57q100 0 181.5 76.5t128 212.5t46.5 306q0 136 -28.5 236 t-85 154.5t-139.5 54.5q-101 0 -182 -75t-128 -209.5t-47 -303.5zM413 1454q0 30 17 57.5t43.5 44t53.5 16.5q44 0 70.5 -26t26.5 -63q0 -32 -17 -59.5t-44.5 -44.5t-59.5 -17q-36 0 -63 27t-27 65zM744 1455q0 30 18 57.5t45 43.5t53 16q43 0 69.5 -25.5t26.5 -62.5 q0 -32 -16.5 -60t-44 -45t-60.5 -17q-37 0 -64 27t-27 66z" />
<glyph unicode="&#xd8;" horiz-adv-x="1097" d="M94 509q0 201 71 363.5t196.5 255t279.5 92.5q99 0 177 -42l103 172l72 -33l-108 -186q76 -68 114 -180t38 -248q0 -202 -71 -366t-196 -257.5t-280 -93.5q-117 0 -204 58l-116 -189l-73 34l126 210q-65 70 -97 176.5t-32 233.5zM258 532q0 -192 54 -307l443 840 q-58 56 -140 56q-101 0 -182 -75.5t-128 -209.5t-47 -304zM353 157q63 -76 159 -76q100 0 181.5 76.5t128 212.5t46.5 305q0 105 -17 189t-51 142z" />
<glyph unicode="&#xd9;" horiz-adv-x="1091" d="M100 1123l10 79h388l-9 -79l-121 -19l-82 -621q-9 -83 -9 -139q0 -133 58 -202.5t164 -69.5q134 0 213.5 107t102.5 316l82 609l-106 19l8 79h343l-9 -79l-98 -19l-82 -609q-24 -184 -84.5 -296.5t-158 -163.5t-235.5 -51q-114 0 -194 43t-122 122.5t-44 188.5 q0 68 6 130l84 636zM377 1485l106 96l208 -270l-54 -38q-40 15 -95.5 50t-102 79t-62.5 83z" />
<glyph unicode="&#xda;" horiz-adv-x="1091" d="M100 1123l10 79h388l-9 -79l-121 -19l-82 -621q-9 -83 -9 -139q0 -133 58 -202.5t164 -69.5q134 0 213.5 107t102.5 316l82 609l-106 19l8 79h343l-9 -79l-98 -19l-82 -609q-24 -184 -84.5 -296.5t-158 -163.5t-235.5 -51q-114 0 -194 43t-122 122.5t-44 188.5 q0 68 6 130l84 636zM579 1311l218 270l100 -96q-19 -41 -67 -84.5t-103.5 -78t-95.5 -49.5z" />
<glyph unicode="&#xdb;" horiz-adv-x="1091" d="M100 1123l10 79h388l-9 -79l-121 -19l-82 -621q-9 -83 -9 -139q0 -133 58 -202.5t164 -69.5q134 0 213.5 107t102.5 316l82 609l-106 19l8 79h343l-9 -79l-98 -19l-82 -609q-24 -184 -84.5 -296.5t-158 -163.5t-235.5 -51q-114 0 -194 43t-122 122.5t-44 188.5 q0 68 6 130l84 636zM383 1329l243 252h140l167 -252l-56 -47l-189 180l-256 -179z" />
<glyph unicode="&#xdc;" horiz-adv-x="1091" d="M100 1123l10 79h388l-9 -79l-121 -19l-82 -621q-9 -83 -9 -139q0 -133 58 -202.5t164 -69.5q134 0 213.5 107t102.5 316l82 609l-106 19l8 79h343l-9 -79l-98 -19l-82 -609q-24 -184 -84.5 -296.5t-158 -163.5t-235.5 -51q-114 0 -194 43t-122 122.5t-44 188.5 q0 68 6 130l84 636zM402 1454q0 30 17 57.5t43.5 44t53.5 16.5q44 0 70.5 -26t26.5 -63q0 -32 -17 -59.5t-44.5 -44.5t-59.5 -17q-36 0 -63 27t-27 65zM733 1455q0 30 18 57.5t45 43.5t53 16q43 0 69.5 -25.5t26.5 -62.5q0 -32 -16.5 -60t-44 -45t-60.5 -17q-37 0 -64 27 t-27 66z" />
<glyph unicode="&#xdd;" horiz-adv-x="930" d="M47 1123l8 79h394l-10 -79l-127 -19l179 -440l28 -100l57 100l269 440l-110 19l8 79h330l-9 -79l-80 -19l-413 -637l-48 -375l155 -22l-6 -70h-480l7 70l170 22l48 375l-287 637zM530 1311l218 270l100 -96q-19 -41 -67 -84.5t-103.5 -78t-95.5 -49.5z" />
<glyph unicode="&#xdf;" horiz-adv-x="936" d="M57 0l101 732q28 221 100 335.5t160 149.5t196 35q73 0 130 -23.5t89.5 -72t32.5 -119.5q0 -44 -16.5 -82.5t-40 -69.5t-61.5 -72q-45 -50 -66.5 -82t-21.5 -67q0 -28 22.5 -65.5t75.5 -102.5q30 -46 48 -76.5t30.5 -71.5t12.5 -88q0 -74 -46.5 -136.5t-124 -99.5 t-164.5 -37q-50 0 -99 11t-78 26l20 148q14 -16 44 -35t65.5 -32t67.5 -13q51 0 83 10.5t48.5 41.5t16.5 91q0 79 -62 178q-42 50 -73.5 108.5t-31.5 104.5q0 36 10.5 62.5t25 45.5t46.5 55q51 52 78 107.5t27 120.5t-32 111t-95 46q-69 0 -116 -29t-82.5 -114t-57.5 -251 l-105 -780h-157z" />
<glyph unicode="&#xe0;" horiz-adv-x="928" d="M65 325q0 129 62.5 268t180 232.5t270.5 93.5q37 0 78.5 -8t78.5 -20l96 27l-103 -769q-1 -6 -1 -16q0 -22 7 -33t17 -11q12 0 28 8t42 29l24 -43q-7 -13 -33.5 -37t-64.5 -43t-79 -19q-51 0 -78.5 26t-23.5 81l5 52q-52 -67 -120 -113t-140 -46q-127 0 -186.5 91.5 t-59.5 249.5zM231 344q0 -247 113 -247q62 0 129 55t115 124l68 521q-39 25 -102 25q-105 0 -178 -75.5t-109 -186.5t-36 -216zM265 1260l122 117l228 -341l-53 -48q-32 14 -94.5 63t-120.5 108t-82 101z" />
<glyph unicode="&#xe1;" horiz-adv-x="928" d="M65 325q0 129 62.5 268t180 232.5t270.5 93.5q37 0 78.5 -8t78.5 -20l96 27l-103 -769q-1 -6 -1 -16q0 -22 7 -33t17 -11q12 0 28 8t42 29l24 -43q-7 -13 -33.5 -37t-64.5 -43t-79 -19q-51 0 -78.5 26t-23.5 81l5 52q-52 -67 -120 -113t-140 -46q-127 0 -186.5 91.5 t-59.5 249.5zM231 344q0 -247 113 -247q62 0 129 55t115 124l68 521q-39 25 -102 25q-105 0 -178 -75.5t-109 -186.5t-36 -216zM486 1036l250 341l114 -109q-15 -28 -74.5 -90t-127.5 -118t-111 -72z" />
<glyph unicode="&#xe2;" horiz-adv-x="928" d="M65 325q0 129 62.5 268t180 232.5t270.5 93.5q37 0 78.5 -8t78.5 -20l96 27l-103 -769q-1 -6 -1 -16q0 -22 7 -33t17 -11q12 0 28 8t42 29l24 -43q-7 -13 -33.5 -37t-64.5 -43t-79 -19q-51 0 -78.5 26t-23.5 81l5 52q-52 -67 -120 -113t-140 -46q-127 0 -186.5 91.5 t-59.5 249.5zM231 344q0 -247 113 -247q62 0 129 55t115 124l68 521q-39 25 -102 25q-105 0 -178 -75.5t-109 -186.5t-36 -216zM285 1016l259 288h141l150 -288l-60 -46l-181 214l-263 -213z" />
<glyph unicode="&#xe4;" horiz-adv-x="928" d="M65 325q0 129 62.5 268t180 232.5t270.5 93.5q37 0 78.5 -8t78.5 -20l96 27l-103 -769q-1 -6 -1 -16q0 -22 7 -33t17 -11q12 0 28 8t42 29l24 -43q-7 -13 -33.5 -37t-64.5 -43t-79 -19q-51 0 -78.5 26t-23.5 81l5 52q-52 -67 -120 -113t-140 -46q-127 0 -186.5 91.5 t-59.5 249.5zM231 344q0 -247 113 -247q62 0 129 55t115 124l68 521q-39 25 -102 25q-105 0 -178 -75.5t-109 -186.5t-36 -216zM319 1187q0 31 16 58.5t43 44t56 16.5q43 0 70.5 -25.5t27.5 -63.5q0 -31 -16.5 -59.5t-44.5 -45.5t-61 -17q-37 0 -64 27t-27 65zM652 1186 q0 31 16 59t42.5 44.5t56.5 16.5q44 0 70.5 -25.5t26.5 -63.5q0 -31 -16.5 -59.5t-44 -45.5t-59.5 -17q-38 0 -65 27t-27 64z" />
<glyph unicode="&#xe5;" horiz-adv-x="928" d="M65 325q0 129 62.5 268t180 232.5t270.5 93.5q37 0 78.5 -8t78.5 -20l96 27l-103 -769q-1 -6 -1 -16q0 -22 7 -33t17 -11q12 0 28 8t42 29l24 -43q-7 -13 -33.5 -37t-64.5 -43t-79 -19q-51 0 -78.5 26t-23.5 81l5 52q-52 -67 -120 -113t-140 -46q-127 0 -186.5 91.5 t-59.5 249.5zM231 344q0 -247 113 -247q62 0 129 55t115 124l68 521q-39 25 -102 25q-105 0 -178 -75.5t-109 -186.5t-36 -216zM361 1174q0 80 41 133.5t104.5 79t131.5 25.5q103 0 160 -47.5t57 -132.5q0 -80 -39 -134.5t-101.5 -81t-131.5 -26.5q-108 0 -165 49t-57 135z M474 1190q0 -36 16 -66t43 -47.5t61 -17.5q68 0 108.5 36t40.5 120q0 55 -33 90.5t-85 35.5q-65 0 -108 -36.5t-43 -114.5z" />
<glyph unicode="&#xe6;" horiz-adv-x="1352" d="M65 325q0 128 63 267t181 232.5t271 93.5q37 0 78.5 -7.5t77.5 -19.5l94 27l-15 -105q57 50 122.5 77.5t135.5 27.5q69 0 116 -27t70 -72t23 -101q0 -113 -90 -192t-211.5 -119t-211.5 -44q-1 -34 -1 -51q0 -99 32.5 -157.5t115.5 -58.5q69 0 142.5 28t139.5 87l38 -66 q-27 -35 -77.5 -72t-119.5 -63t-145 -26q-125 0 -196.5 64t-90.5 183q-30 -64 -75 -120t-102.5 -91.5t-119.5 -35.5q-122 0 -183.5 89.5t-61.5 251.5zM231 344q0 -124 28.5 -185t81.5 -61q54 0 105.5 40.5t90 95t63.5 105.5v1q1 49 10 97l-2 -3l59 357q-40 31 -111 31 q-105 0 -178.5 -75.5t-110 -186.5t-36.5 -216zM773 450q68 3 149 35t138 90t57 132q-1 60 -25.5 89.5t-69.5 29.5q-72 0 -125 -62t-84 -149t-40 -165z" />
<glyph unicode="&#xe7;" horiz-adv-x="696" d="M60 340q0 129 55.5 264t161.5 225t251 90q43 0 92 -11t82 -27l-46 -157q-3 2 -18 13q-82 66 -147 66q-79 0 -137.5 -51.5t-91 -150.5t-32.5 -238q0 -135 42 -201t118 -66q56 0 99 19.5t113 70.5l32 -65q-34 -40 -89 -77.5t-129 -52.5q10 -34 10 -82q0 -91 -29.5 -153 t-80 -92.5t-114.5 -30.5q-31 0 -60.5 6t-42.5 16l12 119q10 -5 31.5 -8t40.5 -3q67 0 105.5 53.5t39.5 143.5q0 17 -1 24q-84 4 -144 47.5t-91.5 122t-31.5 186.5z" />
<glyph unicode="&#xe8;" horiz-adv-x="831" d="M67 340q4 149 66.5 282.5t168.5 215t233 81.5q74 0 125 -26t76 -70.5t25 -101.5q0 -113 -92.5 -192.5t-217 -120.5t-214.5 -45q-2 -20 -2 -32q0 -56 17.5 -110t56 -90t97.5 -36q65 0 134.5 28.5t132.5 87.5l37 -66q-25 -35 -73.5 -72t-114 -63t-137.5 -26q-108 0 -180 50 t-106 131t-32 175zM203 1260l122 117l228 -341l-53 -48q-32 14 -94.5 63t-120.5 108t-82 101zM241 450q69 3 152.5 35.5t143 90.5t59.5 132q-1 59 -27.5 88.5t-71.5 29.5q-74 0 -129 -62t-86.5 -149.5t-40.5 -164.5z" />
<glyph unicode="&#xe9;" horiz-adv-x="831" d="M67 340q4 149 66.5 282.5t168.5 215t233 81.5q74 0 125 -26t76 -70.5t25 -101.5q0 -113 -92.5 -192.5t-217 -120.5t-214.5 -45q-2 -20 -2 -32q0 -56 17.5 -110t56 -90t97.5 -36q65 0 134.5 28.5t132.5 87.5l37 -66q-25 -35 -73.5 -72t-114 -63t-137.5 -26q-108 0 -180 50 t-106 131t-32 175zM241 450q69 3 152.5 35.5t143 90.5t59.5 132q-1 59 -27.5 88.5t-71.5 29.5q-74 0 -129 -62t-86.5 -149.5t-40.5 -164.5zM425 1036l250 341l114 -109q-15 -28 -74.5 -90t-127.5 -118t-111 -72z" />
<glyph unicode="&#xea;" horiz-adv-x="831" d="M67 340q4 149 66.5 282.5t168.5 215t233 81.5q74 0 125 -26t76 -70.5t25 -101.5q0 -113 -92.5 -192.5t-217 -120.5t-214.5 -45q-2 -20 -2 -32q0 -56 17.5 -110t56 -90t97.5 -36q65 0 134.5 28.5t132.5 87.5l37 -66q-25 -35 -73.5 -72t-114 -63t-137.5 -26q-108 0 -180 50 t-106 131t-32 175zM223 1016l259 288h141l150 -288l-60 -46l-181 214l-263 -213zM241 450q69 3 152.5 35.5t143 90.5t59.5 132q-1 59 -27.5 88.5t-71.5 29.5q-74 0 -129 -62t-86.5 -149.5t-40.5 -164.5z" />
<glyph unicode="&#xeb;" horiz-adv-x="831" d="M67 340q4 149 66.5 282.5t168.5 215t233 81.5q74 0 125 -26t76 -70.5t25 -101.5q0 -113 -92.5 -192.5t-217 -120.5t-214.5 -45q-2 -20 -2 -32q0 -56 17.5 -110t56 -90t97.5 -36q65 0 134.5 28.5t132.5 87.5l37 -66q-25 -35 -73.5 -72t-114 -63t-137.5 -26q-108 0 -180 50 t-106 131t-32 175zM241 450q69 3 152.5 35.5t143 90.5t59.5 132q-1 59 -27.5 88.5t-71.5 29.5q-74 0 -129 -62t-86.5 -149.5t-40.5 -164.5zM257 1187q0 31 16 58.5t43 44t56 16.5q43 0 70.5 -25.5t27.5 -63.5q0 -31 -16.5 -59.5t-44.5 -45.5t-61 -17q-37 0 -64 27t-27 65z M590 1186q0 31 16 59t42.5 44.5t56.5 16.5q44 0 70.5 -25.5t26.5 -63.5q0 -31 -16.5 -59.5t-44 -45.5t-59.5 -17q-38 0 -65 27t-27 64z" />
<glyph unicode="&#xec;" horiz-adv-x="507" d="M36 1260l122 117l228 -341l-53 -48q-32 14 -94.5 63t-120.5 108t-82 101zM110 814l14 64l242 41l38 -19l-109 -751q-2 -9 -2 -24q0 -36 20 -36q13 0 33 11.5t51 40.5l25 -42q-11 -17 -40 -44t-70 -49t-85 -22q-101 0 -101 92l1 13q4 52 14.5 124t34.5 231q37 245 49 329z " />
<glyph unicode="&#xed;" horiz-adv-x="507" d="M110 814l14 64l242 41l38 -19l-109 -751q-2 -9 -2 -24q0 -36 20 -36q13 0 33 11.5t51 40.5l25 -42q-11 -17 -40 -44t-70 -49t-85 -22q-101 0 -101 92l1 13q4 52 14.5 124t34.5 231q37 245 49 329zM257 1036l250 341l114 -109q-15 -28 -74.5 -90t-127.5 -118t-111 -72z " />
<glyph unicode="&#xee;" horiz-adv-x="507" d="M56 1016l259 288h141l150 -288l-60 -46l-181 214l-263 -213zM110 814l14 64l242 41l38 -19l-109 -751q-2 -9 -2 -24q0 -36 20 -36q13 0 33 11.5t51 40.5l25 -42q-11 -17 -40 -44t-70 -49t-85 -22q-101 0 -101 92l1 13q4 52 14.5 124t34.5 231q37 245 49 329z" />
<glyph unicode="&#xef;" horiz-adv-x="507" d="M90 1187q0 31 16 58.5t43 44t56 16.5q43 0 70.5 -25.5t27.5 -63.5q0 -31 -16.5 -59.5t-44.5 -45.5t-61 -17q-37 0 -64 27t-27 65zM110 814l14 64l242 41l38 -19l-109 -751q-2 -9 -2 -24q0 -36 20 -36q13 0 33 11.5t51 40.5l25 -42q-11 -17 -40 -44t-70 -49t-85 -22 q-101 0 -101 92l1 13q4 52 14.5 124t34.5 231q37 245 49 329zM423 1186q0 31 16 59t42.5 44.5t56.5 16.5q44 0 70.5 -25.5t26.5 -63.5q0 -31 -16.5 -59.5t-44 -45.5t-59.5 -17q-38 0 -65 27t-27 64z" />
<glyph unicode="&#xf2;" horiz-adv-x="904" d="M67 357q0 143 58.5 272.5t161.5 209.5t230 80q153 0 234.5 -98t81.5 -276q0 -143 -58 -272.5t-161.5 -209t-231.5 -79.5q-152 0 -233.5 97.5t-81.5 275.5zM209 1260l122 117l228 -341l-53 -48q-32 14 -94.5 63t-120.5 108t-82 101zM236 366q0 -138 43.5 -211.5 t130.5 -73.5q82 0 140 69.5t86 175.5t28 214q0 135 -44.5 208.5t-130.5 73.5q-82 0 -139 -69.5t-85.5 -174.5t-28.5 -212z" />
<glyph unicode="&#xf3;" horiz-adv-x="904" d="M67 357q0 143 58.5 272.5t161.5 209.5t230 80q153 0 234.5 -98t81.5 -276q0 -143 -58 -272.5t-161.5 -209t-231.5 -79.5q-152 0 -233.5 97.5t-81.5 275.5zM236 366q0 -138 43.5 -211.5t130.5 -73.5q82 0 140 69.5t86 175.5t28 214q0 135 -44.5 208.5t-130.5 73.5 q-82 0 -139 -69.5t-85.5 -174.5t-28.5 -212zM430 1036l250 341l114 -109q-15 -28 -74.5 -90t-127.5 -118t-111 -72z" />
<glyph unicode="&#xf4;" horiz-adv-x="904" d="M67 357q0 143 58.5 272.5t161.5 209.5t230 80q153 0 234.5 -98t81.5 -276q0 -143 -58 -272.5t-161.5 -209t-231.5 -79.5q-152 0 -233.5 97.5t-81.5 275.5zM236 366q0 -138 43.5 -211.5t130.5 -73.5q82 0 140 69.5t86 175.5t28 214q0 135 -44.5 208.5t-130.5 73.5 q-82 0 -139 -69.5t-85.5 -174.5t-28.5 -212zM245 1016l259 288h141l150 -288l-60 -46l-181 214l-263 -213z" />
<glyph unicode="&#xf6;" horiz-adv-x="904" d="M67 357q0 143 58.5 272.5t161.5 209.5t230 80q153 0 234.5 -98t81.5 -276q0 -143 -58 -272.5t-161.5 -209t-231.5 -79.5q-152 0 -233.5 97.5t-81.5 275.5zM236 366q0 -138 43.5 -211.5t130.5 -73.5q82 0 140 69.5t86 175.5t28 214q0 135 -44.5 208.5t-130.5 73.5 q-82 0 -139 -69.5t-85.5 -174.5t-28.5 -212zM278 1187q0 31 16 58.5t43 44t56 16.5q43 0 70.5 -25.5t27.5 -63.5q0 -31 -16.5 -59.5t-44.5 -45.5t-61 -17q-37 0 -64 27t-27 65zM611 1186q0 31 16 59t42.5 44.5t56.5 16.5q44 0 70.5 -25.5t26.5 -63.5q0 -31 -16.5 -59.5 t-44 -45.5t-59.5 -17q-38 0 -65 27t-27 64z" />
<glyph unicode="&#xf8;" horiz-adv-x="904" d="M67 359q0 143 58.5 272.5t161.5 209t230 79.5q70 0 125 -21l74 123l72 -38l-74 -125q59 -47 89 -126t30 -186q0 -143 -58 -272.5t-161.5 -209t-231.5 -79.5q-80 0 -142 27l-79 -124l-72 38l82 132q-51 48 -77.5 123.5t-26.5 176.5zM236 367q0 -113 27 -179l318 605 q-38 30 -92 30q-82 0 -139 -69t-85.5 -174t-28.5 -213zM305 123q41 -41 105 -41q82 0 140 70t86 176t28 213q0 124 -36 194z" />
<glyph unicode="&#xf9;" horiz-adv-x="955" d="M118 808l14 70l197 41l38 -19l-55 -435q-2 -19 -4 -34t-4 -27q-9 -62 -12.5 -100t-3.5 -78q0 -77 28 -105t84 -28q52 0 107 36.5t97 90.5l91 692h157l-98 -761q-3 -15 -3 -27q0 -33 20 -33q13 0 32 11t52 41l24 -43q-10 -15 -39.5 -43t-71.5 -49.5t-85 -21.5 q-45 0 -68.5 23t-23.5 64q0 14 4 35l-1 7q-113 -131 -262 -131q-97 0 -150 50t-53 167q0 45 6.5 106t20.5 165l41 289zM227 1260l122 117l228 -341l-53 -48q-32 14 -94.5 63t-120.5 108t-82 101z" />
<glyph unicode="&#xfa;" horiz-adv-x="955" d="M118 808l14 70l197 41l38 -19l-55 -435q-2 -19 -4 -34t-4 -27q-9 -62 -12.5 -100t-3.5 -78q0 -77 28 -105t84 -28q52 0 107 36.5t97 90.5l91 692h157l-98 -761q-3 -15 -3 -27q0 -33 20 -33q13 0 32 11t52 41l24 -43q-10 -15 -39.5 -43t-71.5 -49.5t-85 -21.5 q-45 0 -68.5 23t-23.5 64q0 14 4 35l-1 7q-113 -131 -262 -131q-97 0 -150 50t-53 167q0 45 6.5 106t20.5 165l41 289zM448 1036l250 341l114 -109q-15 -28 -74.5 -90t-127.5 -118t-111 -72z" />
<glyph unicode="&#xfb;" horiz-adv-x="955" d="M118 808l14 70l197 41l38 -19l-55 -435q-2 -19 -4 -34t-4 -27q-9 -62 -12.5 -100t-3.5 -78q0 -77 28 -105t84 -28q52 0 107 36.5t97 90.5l91 692h157l-98 -761q-3 -15 -3 -27q0 -33 20 -33q13 0 32 11t52 41l24 -43q-10 -15 -39.5 -43t-71.5 -49.5t-85 -21.5 q-45 0 -68.5 23t-23.5 64q0 14 4 35l-1 7q-113 -131 -262 -131q-97 0 -150 50t-53 167q0 45 6.5 106t20.5 165l41 289zM247 1016l259 288h141l150 -288l-60 -46l-181 214l-263 -213z" />
<glyph unicode="&#xfc;" horiz-adv-x="955" d="M118 808l14 70l197 41l38 -19l-55 -435q-2 -19 -4 -34t-4 -27q-9 -62 -12.5 -100t-3.5 -78q0 -77 28 -105t84 -28q52 0 107 36.5t97 90.5l91 692h157l-98 -761q-3 -15 -3 -27q0 -33 20 -33q13 0 32 11t52 41l24 -43q-10 -15 -39.5 -43t-71.5 -49.5t-85 -21.5 q-45 0 -68.5 23t-23.5 64q0 14 4 35l-1 7q-113 -131 -262 -131q-97 0 -150 50t-53 167q0 45 6.5 106t20.5 165l41 289zM281 1187q0 31 16 58.5t43 44t56 16.5q43 0 70.5 -25.5t27.5 -63.5q0 -31 -16.5 -59.5t-44.5 -45.5t-61 -17q-37 0 -64 27t-27 65zM614 1186q0 31 16 59 t42.5 44.5t56.5 16.5q44 0 70.5 -25.5t26.5 -63.5q0 -31 -16.5 -59.5t-44 -45.5t-59.5 -17q-38 0 -65 27t-27 64z" />
<glyph unicode="&#xfd;" horiz-adv-x="846" d="M-100 -378l38 127q3 -2 21 -10.5t48.5 -15.5t64.5 -7q39 0 88 23.5t100.5 77.5t91.5 140h-76l-135 804q-4 23 -11.5 33.5t-20.5 10.5q-12 0 -25.5 -5.5t-38.5 -26.5l-23 47q9 13 35.5 37t62.5 43t74 19q56 0 78.5 -27t28.5 -81l32 -274l37 -306l16 -214l122 244 q21 50 47 104q36 78 56.5 129t34.5 112t14 127q0 20 -14 50q-7 19 -10 29.5t-3 23.5q0 42 21 62t57 20q103 0 103 -151q0 -73 -22.5 -150t-54 -144.5t-81.5 -163.5l-27 -52q-189 -379 -306 -522q-38 -54 -111 -94.5t-174 -40.5q-25 0 -69 7t-69 15zM400 1036l250 341 l114 -109q-15 -28 -74.5 -90t-127.5 -118t-111 -72z" />
<glyph unicode="&#xff;" horiz-adv-x="846" d="M-100 -378l38 127q3 -2 21 -10.5t48.5 -15.5t64.5 -7q39 0 88 23.5t100.5 77.5t91.5 140h-76l-135 804q-4 23 -11.5 33.5t-20.5 10.5q-12 0 -25.5 -5.5t-38.5 -26.5l-23 47q9 13 35.5 37t62.5 43t74 19q56 0 78.5 -27t28.5 -81l32 -274l37 -306l16 -214l122 244 q21 50 47 104q36 78 56.5 129t34.5 112t14 127q0 20 -14 50q-7 19 -10 29.5t-3 23.5q0 42 21 62t57 20q103 0 103 -151q0 -73 -22.5 -150t-54 -144.5t-81.5 -163.5l-27 -52q-189 -379 -306 -522q-38 -54 -111 -94.5t-174 -40.5q-25 0 -69 7t-69 15zM233 1187q0 31 16 58.5 t43 44t56 16.5q43 0 70.5 -25.5t27.5 -63.5q0 -31 -16.5 -59.5t-44.5 -45.5t-61 -17q-37 0 -64 27t-27 65zM566 1186q0 31 16 59t42.5 44.5t56.5 16.5q44 0 70.5 -25.5t26.5 -63.5q0 -31 -16.5 -59.5t-44 -45.5t-59.5 -17q-38 0 -65 27t-27 64z" />
<glyph unicode="&#x100;" horiz-adv-x="1060" d="M-95 0l7 69l94 23l559 1110h162l200 -1108l123 -25l-6 -69h-406l3 69l124 23l-40 252h-448l-118 -252l126 -23l-5 -69h-375zM322 440h388l-82 534l-9 96zM454 1365l15 120h404l-16 -120h-403z" />
<glyph unicode="&#x101;" horiz-adv-x="928" d="M65 325q0 129 62.5 268t180 232.5t270.5 93.5q37 0 78.5 -8t78.5 -20l96 27l-103 -769q-1 -6 -1 -16q0 -22 7 -33t17 -11q12 0 28 8t42 29l24 -43q-7 -13 -33.5 -37t-64.5 -43t-79 -19q-51 0 -78.5 26t-23.5 81l5 52q-52 -67 -120 -113t-140 -46q-127 0 -186.5 91.5 t-59.5 249.5zM231 344q0 -247 113 -247q62 0 129 55t115 124l68 521q-39 25 -102 25q-105 0 -178 -75.5t-109 -186.5t-36 -216zM355 1125l15 120h404l-16 -120h-403z" />
<glyph unicode="&#x104;" horiz-adv-x="1060" d="M-95 0l7 69l94 23l559 1110h162l200 -1108l123 -25l-6 -69h-147q-62 -49 -94 -87t-33 -73q-2 -34 11.5 -50.5t30.5 -16.5q22 0 46.5 11t57.5 37l20 -75q-37 -34 -87 -55.5t-113 -21.5q-39 0 -67 15t-41.5 39t-13.5 50q0 27 8.5 55.5t23.5 47.5q24 31 49 53t46.5 35.5 t61.5 35.5h-165l3 69l124 23l-40 252h-448l-118 -252l126 -23l-5 -69h-375zM322 440h388l-82 534l-9 96z" />
<glyph unicode="&#x105;" horiz-adv-x="928" d="M65 325q0 129 62.5 268t180 232.5t270.5 93.5q37 0 78.5 -8t78.5 -20l96 27l-103 -769q-1 -6 -1 -16q0 -22 7 -33t17 -11q12 0 28 8t42 29l24 -43q-4 -10 -21.5 -26.5t-40.5 -32.5q-79 -63 -118 -104t-39 -80q-3 -34 11 -50.5t31 -16.5q22 0 46.5 11t57.5 37l20 -75 q-36 -34 -86.5 -55.5t-113.5 -21.5q-40 0 -67 15t-41 39t-14 50t8.5 54.5t23.5 48.5q29 38 59.5 62t73.5 49q-74 15 -69 104l5 52q-52 -67 -120 -113t-140 -46q-127 0 -186.5 91.5t-59.5 249.5zM231 344q0 -247 113 -247q62 0 129 55t115 124l68 521q-39 25 -102 25 q-105 0 -178 -75.5t-109 -186.5t-36 -216z" />
<glyph unicode="&#x106;" horiz-adv-x="967" d="M73 514q0 205 79.5 365t214 248t292.5 88q93 0 158 -10.5t122 -25.5l30 -9l-52 -291h-96l-19 207q-25 17 -62.5 26.5t-101.5 9.5q-137 0 -226 -94t-129 -231t-40 -272q0 -114 27.5 -215t87.5 -165t152 -64q62 0 124 20.5t85 61.5q9 24 27 77t27 78h98l-32 -260l-20 -7 q-76 -27 -156.5 -45.5t-184.5 -18.5q-141 0 -231.5 76t-132 195.5t-41.5 255.5zM567 1311l218 270l100 -96q-19 -41 -67 -84.5t-103.5 -78t-95.5 -49.5z" />
<glyph unicode="&#x107;" horiz-adv-x="696" d="M60 340q0 129 55.5 264t161.5 225t251 90q43 0 92 -11t82 -27l-46 -157q-3 2 -18 13q-82 66 -147 66q-79 0 -137.5 -51.5t-91 -150.5t-32.5 -238q0 -135 42 -201t118 -66q56 0 99 19.5t113 70.5l32 -65q-43 -51 -117 -94t-173 -43q-89 0 -153 42.5t-97.5 122.5t-33.5 191 zM424 1036l250 341l114 -109q-15 -28 -74.5 -90t-127.5 -118t-111 -72z" />
<glyph unicode="&#x10c;" horiz-adv-x="967" d="M73 514q0 205 79.5 365t214 248t292.5 88q93 0 158 -10.5t122 -25.5l30 -9l-52 -291h-96l-19 207q-25 17 -62.5 26.5t-101.5 9.5q-137 0 -226 -94t-129 -231t-40 -272q0 -114 27.5 -215t87.5 -165t152 -64q62 0 124 20.5t85 61.5q9 24 27 77t27 78h98l-32 -260l-20 -7 q-76 -27 -156.5 -45.5t-184.5 -18.5q-141 0 -231.5 76t-132 195.5t-41.5 255.5zM395 1535l61 46l187 -184l251 184l50 -45l-235 -254h-138z" />
<glyph unicode="&#x10d;" horiz-adv-x="696" d="M60 340q0 129 55.5 264t161.5 225t251 90q43 0 92 -11t82 -27l-46 -157q-3 2 -18 13q-82 66 -147 66q-79 0 -137.5 -51.5t-91 -150.5t-32.5 -238q0 -135 42 -201t118 -66q56 0 99 19.5t113 70.5l32 -65q-43 -51 -117 -94t-173 -43q-89 0 -153 42.5t-97.5 122.5t-33.5 191 zM260 1258l62 46l194 -192l236 192l58 -45l-235 -260h-139z" />
<glyph unicode="&#x10e;" horiz-adv-x="1131" d="M14 0l7 69l117 23l128 1012l-105 19l10 79h234q31 0 99 7q74 6 114 6q238 0 348 -133t110 -373q0 -204 -78 -371t-219.5 -261t-322.5 -90q-50 2 -89 6q-33 3 -78.5 5t-78.5 2h-196zM301 104q32 -11 90.5 -17t103.5 -7q141 9 234.5 99.5t137 227.5t43.5 291 q0 158 -34 250.5t-107.5 133.5t-196.5 41q-33 0 -77.5 -5t-67.5 -11zM390 1535l61 46l187 -184l251 184l50 -45l-235 -254h-138z" />
<glyph unicode="&#x10f;" horiz-adv-x="1133" d="M65 325q0 129 62.5 268t179.5 232.5t270 93.5q45 0 109 -14l40 266l-99 34l17 65l214 34l42 -22l-165 -1133q-1 -15 -1 -22q0 -38 19 -38q11 0 27 8t42 29l24 -42q-9 -14 -35.5 -38t-64 -43t-77.5 -19q-50 0 -74.5 26t-22.5 83l-1 18q-43 -54 -106.5 -90.5t-138.5 -36.5 q-86 0 -145 43.5t-87.5 120t-28.5 177.5zM231 336q0 -114 33.5 -176.5t91.5 -62.5q63 0 126 42.5t102 96.5l84 552q-40 34 -114 34q-105 0 -178 -77t-109 -190t-36 -219zM976 845q26 102 40 230q2 19 2 29q0 39 -8 77t-19 53l15 33l126 36q26 -28 26 -115q0 -35 -3 -64 q-10 -99 -45.5 -184.5t-79.5 -137.5l-50 23z" />
<glyph unicode="&#x110;" horiz-adv-x="1130" d="M13 2l8 68l117 24l60 476h-118l12 104h119l55 432l-105 18l10 80h234q31 0 99 6q74 7 114 7q238 0 348 -133.5t110 -372.5q0 -205 -78 -371.5t-219.5 -261t-322.5 -89.5q-50 2 -89 5q-33 4 -78.5 6t-78.5 2h-197zM301 106q32 -11 90.5 -17.5t103.5 -7.5q141 10 234 100.5 t137 227t44 290.5q0 159 -34 251.5t-107.5 133.5t-196.5 41q-33 0 -77.5 -5t-67.5 -12l-55 -434h306l-14 -104h-305z" />
<glyph unicode="&#x111;" horiz-adv-x="933" d="M65 325q0 129 62.5 268t179.5 232.5t270 93.5q45 0 109 -14l13 92h-198l13 103h201l11 71l-99 34l17 65l214 34l42 -22l-27 -182h106l-13 -103h-108l-123 -848q-1 -15 -1 -22q0 -38 19 -38q11 0 27 8t42 29l24 -42q-9 -14 -35.5 -38t-64 -43t-77.5 -19q-50 0 -74.5 26 t-22.5 83l-1 18q-43 -54 -106.5 -90.5t-138.5 -36.5q-86 0 -145 43.5t-87.5 120t-28.5 177.5zM231 336q0 -114 33.5 -176.5t91.5 -62.5q63 0 126 42.5t102 96.5l84 552q-40 34 -114 34q-105 0 -178 -77t-109 -190t-36 -219z" />
<glyph unicode="&#x112;" horiz-adv-x="973" d="M20 0l8 69l118 23l127 1012l-106 19l10 79h738l-7 -246h-87l-37 149l-346 12l-56 -442l353 7l-10 -126l-353 14l-65 -478l432 19l94 167l86 -24l-70 -254h-829zM402 1365l15 120h404l-16 -120h-403z" />
<glyph unicode="&#x113;" horiz-adv-x="831" d="M67 340q4 149 66.5 282.5t168.5 215t233 81.5q74 0 125 -26t76 -70.5t25 -101.5q0 -113 -92.5 -192.5t-217 -120.5t-214.5 -45q-2 -20 -2 -32q0 -56 17.5 -110t56 -90t97.5 -36q65 0 134.5 28.5t132.5 87.5l37 -66q-25 -35 -73.5 -72t-114 -63t-137.5 -26q-108 0 -180 50 t-106 131t-32 175zM241 450q69 3 152.5 35.5t143 90.5t59.5 132q-1 59 -27.5 88.5t-71.5 29.5q-74 0 -129 -62t-86.5 -149.5t-40.5 -164.5zM293 1125l15 120h404l-16 -120h-403z" />
<glyph unicode="&#x116;" horiz-adv-x="973" d="M20 0l8 69l118 23l127 1012l-106 19l10 79h738l-7 -246h-87l-37 149l-346 12l-56 -442l353 7l-10 -126l-353 14l-65 -478l432 19l94 167l86 -24l-70 -254h-829zM520 1425q0 31 17 58t44 44t54 17q43 0 71 -25t28 -62q0 -32 -16.5 -60.5t-45 -45.5t-60.5 -17q-38 0 -65 27 t-27 64z" />
<glyph unicode="&#x117;" horiz-adv-x="831" d="M67 340q4 149 66.5 282.5t168.5 215t233 81.5q74 0 125 -26t76 -70.5t25 -101.5q0 -113 -92.5 -192.5t-217 -120.5t-214.5 -45q-2 -20 -2 -32q0 -56 17.5 -110t56 -90t97.5 -36q65 0 134.5 28.5t132.5 87.5l37 -66q-25 -35 -73.5 -72t-114 -63t-137.5 -26q-108 0 -180 50 t-106 131t-32 175zM241 450q69 3 152.5 35.5t143 90.5t59.5 132q-1 59 -27.5 88.5t-71.5 29.5q-74 0 -129 -62t-86.5 -149.5t-40.5 -164.5zM427 1187q0 31 17 58.5t44 44t54 16.5q44 0 71 -25.5t27 -63.5q0 -31 -16.5 -59.5t-44.5 -45.5t-60 -17q-38 0 -65 27t-27 65z" />
<glyph unicode="&#x118;" horiz-adv-x="974" d="M20 0l8 69l118 23l127 1012l-106 19l10 79h738l-7 -246h-87l-37 149l-346 12l-56 -442l353 7l-10 -126l-353 14l-65 -478l432 19l94 167l86 -24l-70 -254h-81q-62 -50 -94.5 -87.5t-32.5 -72.5q-3 -34 11 -50.5t31 -16.5q22 0 46.5 11t56.5 37l21 -75q-86 -77 -200 -77 q-40 0 -67.5 15t-41.5 39t-14 50q0 27 9 55.5t24 47.5q23 31 48.5 53t45.5 34.5t62 36.5h-653z" />
<glyph unicode="&#x119;" horiz-adv-x="831" d="M67 340q4 149 66.5 282.5t168.5 215t233 81.5q74 0 125 -26t76 -70.5t25 -101.5q0 -113 -92.5 -192.5t-217 -120.5t-214.5 -45q-2 -20 -2 -32q0 -56 17.5 -110t56 -90t97.5 -36q65 0 134.5 28.5t132.5 87.5l37 -66q-27 -38 -74 -73q-71 -61 -126 -127.5t-57 -103.5 q-1 -35 12.5 -51.5t30.5 -16.5q22 0 46.5 11t57.5 37l20 -75q-36 -34 -86.5 -55.5t-114.5 -21.5q-39 0 -66.5 15t-41 39t-13.5 50t8.5 54t22.5 49q31 41 63.5 65.5t83.5 54.5q-48 -12 -91 -12q-108 0 -180 50t-106 131t-32 175zM241 450q69 3 152.5 35.5t143 90.5t59.5 132 q-1 59 -27.5 88.5t-71.5 29.5q-74 0 -129 -62t-86.5 -149.5t-40.5 -164.5z" />
<glyph unicode="&#x11a;" horiz-adv-x="973" d="M20 0l8 69l118 23l127 1012l-106 19l10 79h738l-7 -246h-87l-37 149l-346 12l-56 -442l353 7l-10 -126l-353 14l-65 -478l432 19l94 167l86 -24l-70 -254h-829zM366 1535l61 46l187 -184l251 184l50 -45l-235 -254h-138z" />
<glyph unicode="&#x11b;" horiz-adv-x="831" d="M67 340q4 149 66.5 282.5t168.5 215t233 81.5q74 0 125 -26t76 -70.5t25 -101.5q0 -113 -92.5 -192.5t-217 -120.5t-214.5 -45q-2 -20 -2 -32q0 -56 17.5 -110t56 -90t97.5 -36q65 0 134.5 28.5t132.5 87.5l37 -66q-25 -35 -73.5 -72t-114 -63t-137.5 -26q-108 0 -180 50 t-106 131t-32 175zM241 450q69 3 152.5 35.5t143 90.5t59.5 132q-1 59 -27.5 88.5t-71.5 29.5q-74 0 -129 -62t-86.5 -149.5t-40.5 -164.5zM260 1258l62 46l194 -192l236 192l58 -45l-235 -260h-139z" />
<glyph unicode="&#x122;" horiz-adv-x="1062" d="M79 514q0 205 79.5 365t213.5 248t292 88q106 0 179 -12.5t139 -31.5l31 -9l-46 -235h-104l-17 145q-28 24 -74 37t-126 13q-139 0 -228 -93.5t-129 -230.5t-40 -272q0 -114 28 -215.5t89.5 -165.5t156.5 -64q156 0 228 71l45 314l-184 14l11 92h353l-71 -498 q-22 -2 -47 -9t-30 -9q-28 -9 -26 -8q-95 -28 -169 -44.5t-157 -16.5q-136 0 -225.5 76t-130.5 195.5t-41 255.5zM399 -389q28 22 44 55t16 70q0 29 -17 59t-40 34l1 52l103 79q46 -10 72 -57.5t26 -107.5t-23.5 -112t-57 -84.5t-62.5 -40.5l-62 32v21z" />
<glyph unicode="&#x123;" horiz-adv-x="913" d="M65 325q0 129 62.5 268t180 232.5t270.5 93.5q45 0 90 -9.5t82 -23.5l97 33l-152 -980q-18 -117 -87.5 -193.5t-160.5 -111.5t-179 -35q-50 0 -100 8t-75 19l40 147q40 -19 98 -34t113 -15q69 0 104 13t52.5 46.5t28.5 101.5l36 218q-44 -52 -105.5 -85.5t-133.5 -33.5 q-86 0 -145 43.5t-87.5 120t-28.5 177.5zM231 336q0 -113 33.5 -176t91.5 -63q64 0 126.5 42.5t102.5 97.5l80 554q-40 31 -111 31q-105 0 -178 -77t-109 -190.5t-36 -218.5zM450 1179q0 -56 29 -101.5t76 -55.5l99 95l5 44q-25 5 -42.5 34t-14.5 58q4 43 18 69.5t44 49.5 l2 21l-34 32q-36 -8 -79 -43t-73 -88.5t-30 -114.5z" />
<glyph unicode="&#x12a;" horiz-adv-x="559" d="M22 0l7 69l117 23l127 1012l-105 19l10 79h387l-9 -79l-121 -19l-128 -1012l125 -22l-6 -70h-404zM200 1365l15 120h404l-16 -120h-403z" />
<glyph unicode="&#x12b;" horiz-adv-x="507" d="M110 814l14 64l242 41l38 -19l-109 -751q-2 -9 -2 -24q0 -36 20 -36q13 0 33 11.5t51 40.5l25 -42q-11 -17 -40 -44t-70 -49t-85 -22q-101 0 -101 92l1 13q4 52 14.5 124t34.5 231q37 245 49 329zM126 1125l15 120h404l-16 -120h-403z" />
<glyph unicode="&#x12e;" horiz-adv-x="559" d="M-9 -227q0 27 9 55.5t24 47.5q23 31 48.5 53t47 35.5t60.5 35.5h-158l7 69l117 23l127 1012l-105 19l10 79h387l-9 -79l-121 -19l-128 -1012l125 -22l-6 -70h-152q-61 -49 -93 -87t-33 -73q-3 -34 10.5 -50.5t31.5 -16.5q22 0 46.5 11t56.5 37l21 -75 q-38 -34 -87.5 -55.5t-112.5 -21.5q-40 0 -67.5 15t-41.5 39t-14 50z" />
<glyph unicode="&#x12f;" horiz-adv-x="507" d="M27 -227q0 26 8.5 54.5t23.5 48.5q29 39 61 63.5t73 47.5q-67 15 -67 88l1 14q4 52 14.5 124t34.5 231q37 245 49 329l-115 41l14 64l242 41l38 -19l-109 -751q-2 -9 -2 -24q0 -36 20 -36q13 0 33 11.5t51 40.5l25 -42q-10 -15 -34.5 -39t-56.5 -43q-73 -58 -110.5 -98.5 t-38.5 -78.5q-2 -34 12 -50.5t31 -16.5q22 0 46.5 11t57.5 37l20 -75q-36 -34 -86.5 -55.5t-113.5 -21.5q-40 0 -67 15t-41 39t-14 50zM248 1187q0 31 17.5 58.5t44.5 44t53 16.5q45 0 71.5 -25.5t26.5 -63.5q0 -31 -16.5 -59.5t-44.5 -45.5t-60 -17q-37 0 -64.5 27 t-27.5 65z" />
<glyph unicode="&#x136;" horiz-adv-x="1071" d="M15 0l7 69l117 23l127 1012l-105 19l10 79h387l-9 -79l-122 -19l-70 -560l483 560l-93 19l9 79h332l-11 -79l-82 -19l-415 -449l67 -115q104 -176 121 -204q75 -123 106 -168t55 -59l103 -35l-11 -74h-220q-23 3 -60 65.5t-88 164.5l-25 48q-78 151 -146 271l-144 -156 l-38 -301l125 -22l-6 -70h-404zM415 -387q28 22 44 55t16 70q0 29 -17 59t-40 34l1 52l103 79q46 -10 72 -57.5t26 -107.5t-23.5 -112t-57 -84.5t-62.5 -40.5l-62 32v21z" />
<glyph unicode="&#x137;" horiz-adv-x="853" d="M81 0l153 1171l-93 34l13 65l215 34l41 -22l-171 -1282h-158zM289 -389q28 22 44 55t16 70q0 29 -17 59t-40 34l1 52l103 79q46 -10 72 -57.5t26 -107.5t-23.5 -112t-57 -84.5t-62.5 -40.5l-62 32v21zM315 482l2 1h-2q39 30 68 50q73 53 115.5 90t82.5 91 q19 26 26.5 49.5t11 43t4.5 26.5q7 41 39 63.5t69 22.5q35 0 59.5 -23t24.5 -58q0 -42 -28 -84q-48 -69 -137 -134t-194 -129l204 -319q22 -32 47.5 -53.5t43.5 -21.5q17 0 41 12t48 35l27 -48q-17 -26 -48.5 -52t-73 -43t-83.5 -17q-36 0 -68 21t-57 65z" />
<glyph unicode="&#x139;" horiz-adv-x="933" d="M23 0l6 70l117 22l127 1012l-105 19l10 79h414l-9 -79l-149 -19l-127 -1012l367 9l110 262l94 -18l-76 -345h-779zM324 1313l218 270l100 -96q-19 -41 -67 -84.5t-103.5 -78t-95.5 -49.5z" />
<glyph unicode="&#x13a;" horiz-adv-x="479" d="M111 91q0 13 1 30t3 31l131 918l-97 34l17 66l211 33l38 -21l-146 -1033q-1 -8 -1 -23q0 -17 5 -27t14 -10q14 0 33.5 11t50.5 41l25 -42q-10 -16 -38.5 -43.5t-69.5 -49.5t-83 -22q-49 0 -71.5 25t-22.5 82zM271 1311l218 270l100 -96q-19 -41 -67 -84.5t-103.5 -78 t-96.5 -49.5z" />
<glyph unicode="&#x13b;" horiz-adv-x="933" d="M23 0l6 70l117 22l127 1012l-105 19l10 79h414l-9 -79l-149 -19l-127 -1012l367 9l110 262l94 -18l-76 -345h-779zM338 -387q28 22 44 55t16 70q0 29 -17 59t-40 34l1 52l103 79q46 -10 72 -57.5t26 -107.5t-23.5 -112t-57 -84.5t-62.5 -40.5l-62 32v21z" />
<glyph unicode="&#x13c;" horiz-adv-x="479" d="M47 -389q28 22 44 55t16 70q0 29 -17 59t-40 34l1 52l103 79q46 -10 72 -57.5t26 -107.5t-23.5 -112t-57 -84.5t-62.5 -40.5l-62 32v21zM111 91q0 31 4 61l145 1019l-97 34l16 65l212 34l38 -22l-159 -1133q-1 -8 -1 -23q0 -18 4.5 -27.5t13.5 -9.5q14 0 33.5 11t50.5 41 l25 -42q-10 -16 -38.5 -43.5t-69 -49.5t-83.5 -22q-49 0 -71.5 25t-22.5 82z" />
<glyph unicode="&#x13d;" horiz-adv-x="933" d="M23 0l6 70l117 22l127 1012l-105 19l10 79h414l-9 -79l-149 -19l-127 -1012l367 9l110 262l94 -18l-76 -345h-779zM718 845q26 102 40 230q2 19 2 29q0 39 -8 77t-19 53l15 33l126 36q26 -28 26 -115q0 -35 -3 -64q-10 -99 -45.5 -184.5t-79.5 -137.5l-50 23z" />
<glyph unicode="&#x13e;" horiz-adv-x="676" d="M111 91q0 31 4 61l145 1019l-97 34l16 65l212 34l38 -22l-159 -1133q-1 -8 -1 -23q0 -18 4.5 -27.5t13.5 -9.5q14 0 33.5 11t50.5 41l25 -42q-10 -16 -38.5 -43.5t-69 -49.5t-83.5 -22q-49 0 -71.5 25t-22.5 82zM518 845q26 102 40 230q2 19 2 29q0 39 -8 77t-19 53 l15 33l126 36q26 -28 26 -115q0 -35 -3 -64q-10 -99 -45.5 -184.5t-79.5 -137.5l-50 23z" />
<glyph unicode="&#x141;" horiz-adv-x="933" d="M23 2l6 69l117 23l43 340l-126 -52l-28 93l168 72l70 559l-105 18l10 80h414l-9 -80l-149 -18l-61 -486l315 136l28 -100l-357 -150l-52 -412l367 9l110 262l94 -18l-76 -345h-779z" />
<glyph unicode="&#x142;" horiz-adv-x="479" d="M66 555v109l129 53l65 454l-97 34l16 65l212 34l38 -22l-70 -498l132 54v-116l-149 -58l-72 -515q-1 -8 -1 -23q0 -18 4.5 -27.5t13.5 -9.5q14 0 33.5 11t50.5 41l25 -42q-10 -16 -38.5 -43.5t-69 -49.5t-83.5 -22q-49 0 -71.5 25t-22.5 82q0 31 4 61l64 448z" />
<glyph unicode="&#x143;" horiz-adv-x="1199" d="M25 0l7 69l107 22l134 1013l-116 19l14 79h275l366 -868l56 -184l114 954l-119 19l9 79h358l-8 -79l-114 -19l-161 -1104h-154l-371 872l-49 176l-100 -956l128 -22l-8 -70h-368zM624 1311l218 270l100 -96q-19 -41 -67 -84.5t-103.5 -78t-95.5 -49.5z" />
<glyph unicode="&#x144;" horiz-adv-x="995" d="M105 0l103 761l-78 46l15 71l195 41l38 -19l-16 -168q67 83 152 135t169 52q87 0 133.5 -55.5t46.5 -183.5q0 -42 -8.5 -97t-23.5 -136q-7 -36 -9 -48q-15 -89 -23.5 -143.5t-10.5 -107.5q-1 -7 -1 -18q0 -21 4 -31.5t13 -10.5q24 0 69 37l24 -42q-7 -13 -34.5 -37.5 t-66 -43.5t-79.5 -19q-52 0 -77 25.5t-22 80.5q2 44 10.5 97.5t23.5 135.5l4 28q1 6 9 47q18 94 27 156.5t9 117.5q0 54 -11 80t-28.5 33.5t-50.5 7.5q-58 0 -132.5 -54.5t-134.5 -137.5l-81 -600h-158zM472 1036l250 341l114 -109q-15 -28 -74.5 -90t-127.5 -118t-111 -72z " />
<glyph unicode="&#x145;" horiz-adv-x="1199" d="M25 0l7 69l107 22l134 1013l-116 19l14 79h275l366 -868l56 -184l114 954l-119 19l9 79h358l-8 -79l-114 -19l-161 -1104h-154l-371 872l-49 176l-100 -956l128 -22l-8 -70h-368zM432 -389q28 22 44 55t16 70q0 29 -17 59t-40 34l1 52l103 79q46 -10 72 -57.5t26 -107.5 t-23.5 -112t-57 -84.5t-62.5 -40.5l-62 32v21z" />
<glyph unicode="&#x146;" horiz-adv-x="995" d="M105 0l103 761l-78 46l15 71l195 41l38 -19l-16 -168q67 83 152 135t169 52q87 0 133.5 -55.5t46.5 -183.5q0 -42 -8.5 -97t-23.5 -136q-7 -36 -9 -48q-15 -89 -23.5 -143.5t-10.5 -107.5q-1 -7 -1 -18q0 -21 4 -31.5t13 -10.5q24 0 69 37l24 -42q-7 -13 -34.5 -37.5 t-66 -43.5t-79.5 -19q-52 0 -77 25.5t-22 80.5q2 44 10.5 97.5t23.5 135.5l4 28q1 6 9 47q18 94 27 156.5t9 117.5q0 54 -11 80t-28.5 33.5t-50.5 7.5q-58 0 -132.5 -54.5t-134.5 -137.5l-81 -600h-158zM312 -389q28 22 44 55t16 70q0 29 -17 59t-40 34l1 52l103 79 q46 -10 72 -57.5t26 -107.5t-23.5 -112t-57 -84.5t-62.5 -40.5l-62 32v21z" />
<glyph unicode="&#x147;" horiz-adv-x="1199" d="M25 0l7 69l107 22l134 1013l-116 19l14 79h275l366 -868l56 -184l114 954l-119 19l9 79h358l-8 -79l-114 -19l-161 -1104h-154l-371 872l-49 176l-100 -956l128 -22l-8 -70h-368zM452 1535l61 46l187 -184l251 184l50 -45l-235 -254h-138z" />
<glyph unicode="&#x148;" horiz-adv-x="995" d="M105 0l103 761l-78 46l15 71l195 41l38 -19l-16 -168q67 83 152 135t169 52q87 0 133.5 -55.5t46.5 -183.5q0 -42 -8.5 -97t-23.5 -136q-7 -36 -9 -48q-15 -89 -23.5 -143.5t-10.5 -107.5q-1 -7 -1 -18q0 -21 4 -31.5t13 -10.5q24 0 69 37l24 -42q-7 -13 -34.5 -37.5 t-66 -43.5t-79.5 -19q-52 0 -77 25.5t-22 80.5q2 44 10.5 97.5t23.5 135.5l4 28q1 6 9 47q18 94 27 156.5t9 117.5q0 54 -11 80t-28.5 33.5t-50.5 7.5q-58 0 -132.5 -54.5t-134.5 -137.5l-81 -600h-158zM308 1258l62 46l194 -192l236 192l58 -45l-235 -260h-139z" />
<glyph unicode="&#x150;" horiz-adv-x="1092" d="M94 507q0 202 71 364t196.5 254.5t279.5 92.5q132 0 221 -69t132 -186t43 -261q0 -203 -71 -367t-196 -257.5t-280 -93.5q-131 0 -220.5 70.5t-132.5 189t-43 263.5zM258 531q0 -134 28.5 -236t85.5 -159t140 -57q100 0 181.5 76.5t128 212.5t46.5 306q0 136 -28.5 236 t-85 154.5t-139.5 54.5q-101 0 -182 -75t-128 -209.5t-47 -303.5zM447 1325l218 256l106 -94q-19 -43 -65.5 -86t-99.5 -77.5t-92 -50.5zM792 1325l218 256l108 -95q-26 -43 -70.5 -86.5t-93.5 -77.5t-88 -49z" />
<glyph unicode="&#x151;" horiz-adv-x="904" d="M67 357q0 143 58.5 272.5t161.5 209.5t230 80q153 0 234.5 -98t81.5 -276q0 -143 -58 -272.5t-161.5 -209t-231.5 -79.5q-152 0 -233.5 97.5t-81.5 275.5zM236 366q0 -138 43.5 -211.5t130.5 -73.5q82 0 140 69.5t86 175.5t28 214q0 135 -44.5 208.5t-130.5 73.5 q-82 0 -139 -69.5t-85.5 -174.5t-28.5 -212zM287 1024l188 329l116 -84q-13 -38 -56 -96t-95 -110.5t-86 -74.5zM618 1032l203 321l118 -85q-13 -39 -61 -97.5t-103.5 -109t-86.5 -65.5z" />
<glyph unicode="&#x152;" horiz-adv-x="1649" d="M79 509q0 201 74.5 362.5t202.5 253t282 91.5q119 0 202.5 -65t128.5 -179l27 230h604l-7 -231h-87l-37 134l-314 12l-59 -448l317 19l-13 -132l-312 14l-59 -478l404 19l76 150l85 -24l-51 -237h-689l24 205q-71 -105 -171 -163t-218 -58q-123 0 -216 63.5t-143.5 182 t-50.5 279.5zM246 559q4 -235 65.5 -357.5t201.5 -122.5q100 0 181 76t127 210t46 300q0 235 -63.5 343.5t-192.5 108.5q-101 0 -186 -74t-133.5 -202t-45.5 -282z" />
<glyph unicode="&#x153;" horiz-adv-x="1404" d="M68 358q0 142 58 271.5t161 209t230 79.5q98 0 167.5 -41.5t106.5 -120.5q63 77 145 119.5t172 42.5q75 0 126 -25.5t75.5 -70t24.5 -101.5q0 -113 -92.5 -192.5t-216.5 -120.5t-214 -45q-2 -22 -2 -34q0 -56 17.5 -109.5t55.5 -88.5t98 -35q64 0 133.5 28t133.5 87 l37 -66q-26 -35 -74.5 -72t-114 -63t-138.5 -26q-95 0 -163 40t-107 110q-61 -71 -138.5 -110.5t-166.5 -39.5q-152 0 -233 97.5t-81 276.5zM236 363q0 -135 44 -208.5t130 -73.5q85 0 143.5 74.5t87.5 192.5q2 75 20 147q1 15 1 44q0 118 -38.5 200.5t-134.5 82.5 q-82 0 -139.5 -70t-85.5 -175.5t-28 -213.5zM814 450q69 3 153 35.5t142.5 90t58.5 131.5q0 59 -26 89t-72 30q-73 0 -128.5 -62t-87 -149.5t-40.5 -164.5z" />
<glyph unicode="&#x154;" horiz-adv-x="1068" d="M37 0l7 69l102 23l127 1012l-105 19l10 79h215q31 0 94 7q64 6 95 6q136 0 220 -30t122.5 -91t38.5 -159q0 -94 -35 -171.5t-102 -133t-161 -82.5q33 -28 75 -97.5t71 -132.5l32 -71q38 -83 57 -114t44.5 -43.5t77.5 -12.5l-4 -77h-184q-23 0 -42.5 18.5t-44.5 66.5 t-60 138q-39 98 -66.5 158.5t-59.5 104t-66 44.5l-144 -1l-50 -437l146 -22l-6 -70h-404zM363 623q53 -3 131 -3q31 0 39 1q89 6 149 47t89 106.5t29 145.5q0 71 -19.5 114t-72 65t-149.5 22q-20 0 -63 -3t-66 -8zM580 1311l218 270l100 -96q-19 -41 -67 -84.5t-103.5 -78 t-95.5 -49.5z" />
<glyph unicode="&#x155;" horiz-adv-x="661" d="M105 0l96 760l-79 47l15 71l194 41l38 -19l-17 -181q20 39 59.5 85.5t98.5 80t128 33.5q37 0 48 -10l-36 -169q-22 11 -81 11q-65 0 -129.5 -43t-105.5 -138l-71 -569h-158zM241 1036l250 341l114 -109q-15 -28 -74.5 -90t-127.5 -118t-111 -72z" />
<glyph unicode="&#x158;" horiz-adv-x="1060" d="M30 0l7 69l102 23l127 1012l-105 19l10 79h215q31 0 94 7q64 6 95 6q136 0 220 -30t122.5 -91t38.5 -159q0 -94 -35 -171.5t-102 -133t-161 -82.5q33 -28 75 -97.5t71 -132.5l32 -71q38 -83 57 -114t44.5 -43.5t77.5 -12.5l-4 -77h-184q-23 0 -42.5 18.5t-44.5 66.5 t-60 138q-39 98 -66.5 158.5t-59.5 104t-66 44.5l-144 -1l-50 -437l146 -22l-6 -70h-404zM355 1535l61 46l187 -184l251 184l50 -45l-235 -254h-138zM356 623q53 -3 131 -3q31 0 39 1q89 6 149 47t89 106.5t29 145.5q0 71 -19.5 114t-72 65t-149.5 22q-20 0 -63 -3t-66 -8z " />
<glyph unicode="&#x159;" horiz-adv-x="661" d="M105 0l96 760l-79 47l15 71l194 41l38 -19l-17 -181q20 39 59.5 85.5t98.5 80t128 33.5q37 0 48 -10l-36 -169q-22 11 -81 11q-65 0 -129.5 -43t-105.5 -138l-71 -569h-158zM187 1258l62 46l194 -192l236 192l58 -45l-235 -260h-139z" />
<glyph unicode="&#x15a;" horiz-adv-x="855" d="M43 51l33 223h95l19 -152q32 -22 82 -35t98 -13q57 0 114 22t95.5 69t38.5 116q0 57 -25.5 102.5t-67 81t-102.5 73.5q-80 50 -137 98t-94.5 113t-37.5 148q0 93 52 166t139.5 114t189.5 41q103 0 175 -20t113 -47l-37 -208h-86l-22 142q-25 18 -67.5 29.5t-89.5 11.5 q-50 0 -98 -19t-78.5 -58.5t-30.5 -97.5q0 -89 52.5 -153t150.5 -125q87 -55 138 -96t87 -100.5t36 -139.5q0 -108 -53.5 -188.5t-147.5 -123.5t-212 -43q-70 0 -136.5 10.5t-116.5 27t-69 31.5zM488 1311l218 270l100 -96q-19 -41 -67 -84.5t-103.5 -78t-95.5 -49.5z" />
<glyph unicode="&#x15b;" horiz-adv-x="699" d="M38 31l29 121q32 -22 90 -41t122 -19q67 0 111 22t44 91q0 40 -19 73.5t-47 59t-73 58.5q-63 46 -114 114t-51 152q0 76 42.5 134.5t112.5 90.5t152 32q60 0 120 -9.5t83 -19.5l-30 -134q-6 9 -31.5 23.5t-64 25.5t-83.5 11q-58 0 -99 -24t-47 -82q-1 -5 -1 -16 q0 -51 34 -95t92 -89q55 -42 90.5 -77.5t61 -85t25.5 -111.5q0 -79 -43 -136t-115.5 -86.5t-157.5 -29.5q-71 0 -141.5 14.5t-91.5 32.5zM345 1036l250 341l114 -109q-15 -28 -74.5 -90t-127.5 -118t-111 -72z" />
<glyph unicode="&#x160;" horiz-adv-x="855" d="M43 51l33 223h95l19 -152q32 -22 82 -35t98 -13q57 0 114 22t95.5 69t38.5 116q0 57 -25.5 102.5t-67 81t-102.5 73.5q-80 50 -137 98t-94.5 113t-37.5 148q0 93 52 166t139.5 114t189.5 41q103 0 175 -20t113 -47l-37 -208h-86l-22 142q-25 18 -67.5 29.5t-89.5 11.5 q-50 0 -98 -19t-78.5 -58.5t-30.5 -97.5q0 -89 52.5 -153t150.5 -125q87 -55 138 -96t87 -100.5t36 -139.5q0 -108 -53.5 -188.5t-147.5 -123.5t-212 -43q-70 0 -136.5 10.5t-116.5 27t-69 31.5zM316 1535l61 46l187 -184l251 184l50 -45l-235 -254h-138z" />
<glyph unicode="&#x161;" horiz-adv-x="699" d="M38 31l29 121q32 -22 90 -41t122 -19q67 0 111 22t44 91q0 40 -19 73.5t-47 59t-73 58.5q-63 46 -114 114t-51 152q0 76 42.5 134.5t112.5 90.5t152 32q60 0 120 -9.5t83 -19.5l-30 -134q-6 9 -31.5 23.5t-64 25.5t-83.5 11q-58 0 -99 -24t-47 -82q-1 -5 -1 -16 q0 -51 34 -95t92 -89q55 -42 90.5 -77.5t61 -85t25.5 -111.5q0 -79 -43 -136t-115.5 -86.5t-157.5 -29.5q-71 0 -141.5 14.5t-91.5 32.5zM181 1258l62 46l194 -192l236 192l58 -45l-235 -260h-139z" />
<glyph unicode="&#x164;" horiz-adv-x="974" d="M66 830l60 372h907l-53 -372h-87l5 270l-253 17l-131 -1025l197 -18l-6 -74h-553l8 74l192 18l131 1025l-250 -16l-76 -269zM357 1535l61 46l187 -184l251 184l50 -45l-235 -254h-138z" />
<glyph unicode="&#x165;" horiz-adv-x="580" d="M103 802l16 69l97 37q24 27 53 86t54 125h78l-27 -207h205l-16 -110h-203l-65 -494q-14 -100 -14 -139q0 -30 5.5 -45.5t19.5 -21.5t42 -6t75 21.5t75 43.5l15 -61q-19 -24 -62 -51.5t-94.5 -46t-95.5 -18.5q-65 0 -104.5 33t-39.5 109q0 31 10 108l71 568h-95zM512 1035 q26 102 40 230q2 19 2 29q0 39 -8 77t-19 53l15 33l126 36q26 -28 26 -115q0 -35 -3 -64q-10 -99 -45.5 -184.5t-79.5 -137.5l-50 23z" />
<glyph unicode="&#x16a;" horiz-adv-x="1091" d="M100 1123l10 79h388l-9 -79l-121 -19l-82 -621q-9 -83 -9 -139q0 -133 58 -202.5t164 -69.5q134 0 213.5 107t102.5 316l82 609l-106 19l8 79h343l-9 -79l-98 -19l-82 -609q-24 -184 -84.5 -296.5t-158 -163.5t-235.5 -51q-114 0 -194 43t-122 122.5t-44 188.5 q0 68 6 130l84 636zM442 1365l15 120h404l-16 -120h-403z" />
<glyph unicode="&#x16b;" horiz-adv-x="955" d="M118 808l14 70l197 41l38 -19l-55 -435q-2 -19 -4 -34t-4 -27q-9 -62 -12.5 -100t-3.5 -78q0 -77 28 -105t84 -28q52 0 107 36.5t97 90.5l91 692h157l-98 -761q-3 -15 -3 -27q0 -33 20 -33q13 0 32 11t52 41l24 -43q-10 -15 -39.5 -43t-71.5 -49.5t-85 -21.5 q-45 0 -68.5 23t-23.5 64q0 14 4 35l-1 7q-113 -131 -262 -131q-97 0 -150 50t-53 167q0 45 6.5 106t20.5 165l41 289zM317 1125l15 120h404l-16 -120h-403z" />
<glyph unicode="&#x16e;" horiz-adv-x="1091" d="M100 1123l10 79h388l-9 -79l-121 -19l-82 -621q-9 -83 -9 -139q0 -133 58 -202.5t164 -69.5q134 0 213.5 107t102.5 316l82 609l-106 19l8 79h343l-9 -79l-98 -19l-82 -609q-24 -184 -84.5 -296.5t-158 -163.5t-235.5 -51q-114 0 -194 43t-122 122.5t-44 188.5 q0 68 6 130l84 636zM416 1461q0 64 41.5 109t105.5 67.5t131 22.5q103 0 161 -42t58 -116q0 -71 -39.5 -119.5t-102 -73t-132.5 -24.5q-108 0 -165.5 47t-57.5 129zM530 1469q0 -52 32 -83t89 -31q66 0 107.5 33.5t41.5 106.5q0 43 -32.5 68.5t-86.5 25.5q-63 0 -107 -30 t-44 -90z" />
<glyph unicode="&#x16f;" horiz-adv-x="955" d="M118 808l14 70l197 41l38 -19l-55 -435q-2 -19 -4 -34t-4 -27q-9 -62 -12.5 -100t-3.5 -78q0 -77 28 -105t84 -28q52 0 107 36.5t97 90.5l91 692h157l-98 -761q-3 -15 -3 -27q0 -33 20 -33q13 0 32 11t52 41l24 -43q-10 -15 -39.5 -43t-71.5 -49.5t-85 -21.5 q-45 0 -68.5 23t-23.5 64q0 14 4 35l-1 7q-113 -131 -262 -131q-97 0 -150 50t-53 167q0 45 6.5 106t20.5 165l41 289zM323 1174q0 80 41 133.5t104.5 79t131.5 25.5q103 0 160 -47.5t57 -132.5q0 -80 -39 -134.5t-101.5 -81t-131.5 -26.5q-108 0 -165 49t-57 135zM436 1190 q0 -36 16 -66t43 -47.5t61 -17.5q68 0 108.5 36t40.5 120q0 55 -33 90.5t-85 35.5q-65 0 -108 -36.5t-43 -114.5z" />
<glyph unicode="&#x170;" horiz-adv-x="1091" d="M100 1123l10 79h388l-9 -79l-121 -19l-82 -621q-9 -83 -9 -139q0 -133 58 -202.5t164 -69.5q134 0 213.5 107t102.5 316l82 609l-106 19l8 79h343l-9 -79l-98 -19l-82 -609q-24 -184 -84.5 -296.5t-158 -163.5t-235.5 -51q-114 0 -194 43t-122 122.5t-44 188.5 q0 68 6 130l84 636zM436 1325l218 256l106 -94q-19 -43 -65.5 -86t-99.5 -77.5t-92 -50.5zM781 1325l218 256l108 -95q-26 -43 -70.5 -86.5t-93.5 -77.5t-88 -49z" />
<glyph unicode="&#x171;" horiz-adv-x="955" d="M118 808l14 70l197 41l38 -19l-55 -435q-2 -19 -4 -34t-4 -27q-9 -62 -12.5 -100t-3.5 -78q0 -77 28 -105t84 -28q52 0 107 36.5t97 90.5l91 692h157l-98 -761q-3 -15 -3 -27q0 -33 20 -33q13 0 32 11t52 41l24 -43q-10 -15 -39.5 -43t-71.5 -49.5t-85 -21.5 q-45 0 -68.5 23t-23.5 64q0 14 4 35l-1 7q-113 -131 -262 -131q-97 0 -150 50t-53 167q0 45 6.5 106t20.5 165l41 289zM305 1024l188 329l116 -84q-13 -38 -56 -96t-95 -110.5t-86 -74.5zM636 1032l203 321l118 -85q-13 -39 -61 -97.5t-103.5 -109t-86.5 -65.5z" />
<glyph unicode="&#x172;" horiz-adv-x="1091" d="M100 1123l10 79h388l-9 -79l-121 -19l-82 -621q-9 -83 -9 -139q0 -133 58 -202.5t164 -69.5q134 0 213.5 107t102.5 316l82 609l-106 19l8 79h343l-9 -79l-98 -19l-82 -609q-29 -232 -119 -352t-243 -149q-44 -46 -72 -87t-28 -66q-2 -35 11.5 -51.5t29.5 -16.5 q23 0 47.5 11t56.5 37l21 -75q-36 -34 -86.5 -55.5t-113.5 -21.5q-40 0 -67.5 15t-41.5 39t-14 50t9 54t24 49q27 37 57.5 61.5t69.5 47.5l-19 -1q-114 0 -194 43t-122 122.5t-44 188.5q0 68 6 130l84 636z" />
<glyph unicode="&#x173;" horiz-adv-x="955" d="M118 808l14 70l197 41l38 -19l-55 -435q-2 -19 -4 -34t-4 -27q-9 -62 -12.5 -100t-3.5 -78q0 -77 28 -105t84 -28q52 0 107 36.5t97 90.5l91 692h157l-98 -761q-3 -15 -3 -27q0 -33 20 -33q13 0 32 11t52 41l24 -43q-11 -18 -45 -48t-74 -48q-65 -52 -98.5 -90t-34.5 -74 q-1 -34 12.5 -50.5t30.5 -16.5q22 0 46.5 11t56.5 37l21 -75q-37 -34 -87 -55.5t-113 -21.5q-39 0 -67 15t-41.5 39t-13.5 50q0 27 8.5 55.5t23.5 47.5q30 40 63 65.5t77 49.5q-53 17 -53 81q0 15 4 36l-1 7q-113 -131 -262 -131q-97 0 -150 50t-53 167q0 45 6.5 106 t20.5 165l41 289z" />
<glyph unicode="&#x178;" horiz-adv-x="930" d="M47 1123l8 79h394l-10 -79l-127 -19l179 -440l28 -100l57 100l269 440l-110 19l8 79h330l-9 -79l-80 -19l-413 -637l-48 -375l155 -22l-6 -70h-480l7 70l170 22l48 375l-287 637zM353 1454q0 30 17 57.5t43.5 44t53.5 16.5q44 0 70.5 -26t26.5 -63q0 -32 -17 -59.5 t-44.5 -44.5t-59.5 -17q-36 0 -63 27t-27 65zM684 1455q0 30 18 57.5t45 43.5t53 16q43 0 69.5 -25.5t26.5 -62.5q0 -32 -16.5 -60t-44 -45t-60.5 -17q-37 0 -64 27t-27 66z" />
<glyph unicode="&#x179;" horiz-adv-x="941" d="M-4 70l641 887l132 155l-451 -6l-76 -196l-96 19l45 273h744l20 -68l-642 -897l-119 -152l501 20l101 202l97 -26l-73 -281h-803zM504 1311l218 270l100 -96q-19 -41 -67 -84.5t-103.5 -78t-95.5 -49.5z" />
<glyph unicode="&#x17a;" horiz-adv-x="808" d="M-3 31l507 622l113 124h-325q-46 0 -74 -37.5t-37 -94.5h-66q0 42 7 97t20.5 101t35.5 60q14 9 26 13t38 4q70 0 253 -12q150 -11 205 -11q20 0 35 4.5t31 17.5l45 -48l-513 -637l-100 -110h323q55 0 94 37t47 91h66q-1 -40 -10 -94.5t-25.5 -100t-37.5 -59.5 q-11 -7 -31.5 -11.5t-48.5 -4.5q-67 0 -244 14q-149 12 -200 12q-16 0 -35.5 -4t-34.5 -13l-11 -9zM392 1036l250 341l114 -109q-15 -28 -74.5 -90t-127.5 -118t-111 -72z" />
<glyph unicode="&#x17b;" horiz-adv-x="941" d="M-4 70l641 887l132 155l-451 -6l-76 -196l-96 19l45 273h744l20 -68l-642 -897l-119 -152l501 20l101 202l97 -26l-73 -281h-803zM485 1425q0 31 17 58t44 44t54 17q43 0 71 -25t28 -62q0 -32 -16.5 -60.5t-45 -45.5t-60.5 -17q-38 0 -65 27t-27 64z" />
<glyph unicode="&#x17c;" horiz-adv-x="808" d="M-3 31l507 622l113 124h-325q-46 0 -74 -37.5t-37 -94.5h-66q0 42 7 97t20.5 101t35.5 60q14 9 26 13t38 4q70 0 253 -12q150 -11 205 -11q20 0 35 4.5t31 17.5l45 -48l-513 -637l-100 -110h323q55 0 94 37t47 91h66q-1 -40 -10 -94.5t-25.5 -100t-37.5 -59.5 q-11 -7 -31.5 -11.5t-48.5 -4.5q-67 0 -244 14q-149 12 -200 12q-16 0 -35.5 -4t-34.5 -13l-11 -9zM395 1187q0 31 17 58.5t44 44t54 16.5q44 0 71 -25.5t27 -63.5q0 -31 -16.5 -59.5t-44.5 -45.5t-60 -17q-38 0 -65 27t-27 65z" />
<glyph unicode="&#x17d;" horiz-adv-x="941" d="M-4 70l641 887l132 155l-451 -6l-76 -196l-96 19l45 273h744l20 -68l-642 -897l-119 -152l501 20l101 202l97 -26l-73 -281h-803zM331 1535l61 46l187 -184l251 184l50 -45l-235 -254h-138z" />
<glyph unicode="&#x17e;" horiz-adv-x="808" d="M-3 31l507 622l113 124h-325q-46 0 -74 -37.5t-37 -94.5h-66q0 42 7 97t20.5 101t35.5 60q14 9 26 13t38 4q70 0 253 -12q150 -11 205 -11q20 0 35 4.5t31 17.5l45 -48l-513 -637l-100 -110h323q55 0 94 37t47 91h66q-1 -40 -10 -94.5t-25.5 -100t-37.5 -59.5 q-11 -7 -31.5 -11.5t-48.5 -4.5q-67 0 -244 14q-149 12 -200 12q-16 0 -35.5 -4t-34.5 -13l-11 -9zM227 1258l62 46l194 -192l236 192l58 -45l-235 -260h-139z" />
<glyph unicode="&#x2c6;" horiz-adv-x="628" d="M40 1016l259 288h141l150 -288l-60 -46l-181 214l-263 -213z" />
<glyph unicode="&#x2da;" horiz-adv-x="570" d="M70 1174q0 80 41 133.5t104.5 79t131.5 25.5q103 0 160 -47.5t57 -132.5q0 -80 -39 -134.5t-101.5 -81t-131.5 -26.5q-108 0 -165 49t-57 135zM183 1190q0 -36 16 -66t43 -47.5t61 -17.5q68 0 108.5 36t40.5 120q0 55 -33 90.5t-85 35.5q-65 0 -108 -36.5t-43 -114.5z " />
<glyph unicode="&#x2dc;" horiz-adv-x="644" d="M39 1171q17 35 48 65.5t69 49t78 18.5q38 0 64.5 -16t57.5 -47q26 -24 43 -35.5t39 -11.5q27 0 48.5 12.5t35 27t37.5 46.5l47 -73q-14 -40 -43.5 -72.5t-70 -51.5t-84.5 -19q-48 0 -75 16.5t-56 46.5q-23 25 -40.5 36.5t-44.5 11.5q-25 0 -57 -21.5t-58 -49.5z" />
<glyph unicode="&#x2000;" horiz-adv-x="830" />
<glyph unicode="&#x2001;" horiz-adv-x="1660" />
<glyph unicode="&#x2002;" horiz-adv-x="830" />
<glyph unicode="&#x2003;" horiz-adv-x="1660" />
<glyph unicode="&#x2004;" horiz-adv-x="553" />
<glyph unicode="&#x2005;" horiz-adv-x="415" />
<glyph unicode="&#x2006;" horiz-adv-x="276" />
<glyph unicode="&#x2007;" horiz-adv-x="276" />
<glyph unicode="&#x2008;" horiz-adv-x="207" />
<glyph unicode="&#x2009;" horiz-adv-x="332" />
<glyph unicode="&#x200a;" horiz-adv-x="92" />
<glyph unicode="&#x2010;" horiz-adv-x="1000" d="M184 547l14 126h662l-15 -126h-661z" />
<glyph unicode="&#x2011;" horiz-adv-x="1000" d="M184 547l14 126h662l-15 -126h-661z" />
<glyph unicode="&#x2012;" horiz-adv-x="1000" d="M184 547l14 126h662l-15 -126h-661z" />
<glyph unicode="&#x2013;" horiz-adv-x="1215" d="M184 547l24 126h866l-23 -126h-867z" />
<glyph unicode="&#x2014;" horiz-adv-x="1604" d="M184 547l23 126h1257l-24 -126h-1256z" />
<glyph unicode="&#x2018;" horiz-adv-x="539" d="M171 958q0 101 45 181t115 134.5t149 86.5l33 -56l-2 -17q-41 -14 -79.5 -55t-63 -96t-24.5 -109q0 -34 11.5 -64t31.5 -49.5t44 -21.5l-4 -32l-116 -121q-72 20 -106 82.5t-34 136.5z" />
<glyph unicode="&#x2019;" horiz-adv-x="539" d="M167 795l2 17q41 14 80 55t63 96t24 109q0 34 -11.5 64t-31.5 49.5t-44 21.5l4 33l116 120q73 -20 107 -82.5t34 -136.5q0 -101 -45.5 -181t-115 -134.5t-148.5 -86.5z" />
<glyph unicode="&#x201a;" horiz-adv-x="538" d="M23 -342l1 17q42 14 80.5 55t62.5 96.5t24 108.5q0 34 -11.5 64t-31 49.5t-44.5 21.5l4 33l116 120q73 -20 107 -82.5t34 -136.5q0 -100 -45 -180.5t-115 -135t-149 -86.5z" />
<glyph unicode="&#x201c;" horiz-adv-x="917" d="M171 958q0 101 45 181t115 134.5t149 86.5l33 -56l-2 -17q-41 -14 -79.5 -55t-63 -96t-24.5 -109q0 -34 11.5 -64t31.5 -49.5t44 -21.5l-4 -32l-116 -121q-72 20 -106 82.5t-34 136.5zM549 958q0 101 45 181t115 134.5t149 86.5l33 -56l-2 -17q-41 -14 -79.5 -55t-63 -96 t-24.5 -109q0 -34 11.5 -64t31.5 -49.5t44 -21.5l-4 -32l-116 -121q-72 20 -106 82.5t-34 136.5z" />
<glyph unicode="&#x201d;" horiz-adv-x="917" d="M168 795l2 17q41 14 79.5 55t63 96t24.5 109q0 34 -11.5 64t-31.5 49.5t-44 21.5l4 33l116 120q72 -20 106 -82.5t34 -136.5q0 -101 -45 -181t-115 -134.5t-149 -86.5zM547 795l2 17q41 14 80 55t63 96t24 109q0 34 -11.5 64t-31.5 49.5t-44 21.5l4 33l116 120 q73 -20 107 -82.5t34 -136.5q0 -101 -45.5 -181t-115 -134.5t-148.5 -86.5z" />
<glyph unicode="&#x201e;" horiz-adv-x="917" d="M23 -342l1 17q42 14 80.5 55t62.5 96.5t24 108.5q0 34 -11.5 64t-31 49.5t-44.5 21.5l4 33l116 120q73 -20 107 -82.5t34 -136.5q0 -100 -45 -180.5t-115 -135t-149 -86.5zM401 -342l2 17q41 14 79.5 55t63 96.5t24.5 108.5q0 34 -11.5 64t-31.5 49.5t-44 21.5l4 33 l116 120q72 -20 106 -82.5t34 -136.5q0 -100 -45 -180.5t-114.5 -135t-149.5 -86.5z" />
<glyph unicode="&#x2022;" horiz-adv-x="677" d="M182 554q0 54 26.5 99t72 71t101.5 26q39 0 71 -20t50.5 -53t18.5 -72q0 -54 -26 -100t-71.5 -72.5t-101.5 -26.5q-39 0 -71 20.5t-51 54.5t-19 73z" />
<glyph unicode="&#x2026;" horiz-adv-x="1246" d="M66 67q0 36 18.5 66.5t47.5 49t61 18.5q48 0 72 -23.5t24 -61.5q0 -39 -19 -69t-50 -47t-65 -17q-40 0 -64.5 22.5t-24.5 61.5zM482 67q0 36 18 66.5t47.5 49t60.5 18.5q48 0 72.5 -23.5t24.5 -61.5q0 -39 -19 -69t-50.5 -47t-65.5 -17q-39 0 -63.5 22.5t-24.5 61.5z M897 67q0 36 18.5 66.5t47.5 49t61 18.5q48 0 72 -23.5t24 -61.5q0 -39 -19 -69t-50 -47t-65 -17q-40 0 -64.5 22.5t-24.5 61.5z" />
<glyph unicode="&#x202f;" horiz-adv-x="332" />
<glyph unicode="&#x2039;" horiz-adv-x="940" d="M190 419l18 126l547 313l31 -92l-401 -280l326 -277l-57 -89z" />
<glyph unicode="&#x203a;" horiz-adv-x="940" d="M100 213l401 279l-326 277l56 89l464 -299l-17 -126l-548 -313z" />
<glyph unicode="&#x205f;" horiz-adv-x="415" />
<glyph unicode="&#x20ac;" horiz-adv-x="1096" d="M21 445l11 104h144q3 82 19 157h-125l15 104h139q44 125 122 216.5t179 140t210 48.5q57 0 102 -6.5t73 -14t74 -22.5q36 -10 58 -15l-43 -177h-86l-22 85q-51 56 -197 56q-115 0 -195.5 -81t-120.5 -230h448l-16 -104h-454q-12 -69 -16 -157h433l-11 -104h-422 q5 -173 62.5 -268.5t170.5 -95.5q70 0 132.5 20.5t90.5 61.5l53 108l96 -1l-37 -215q-35 -2 -102 -20q-68 -22 -127 -35t-131 -13q-117 0 -196.5 64t-121.5 167.5t-51 226.5h-158z" />
<glyph unicode="&#x2122;" horiz-adv-x="1677" d="M105 1021l41 188h544l-26 -186l-50 -4l-6 106l-132 9l-64 -466l102 -12l-8 -62h-339l9 62l100 12l65 465l-136 -9l-48 -102zM675 594l8 62l85 12l88 466l-78 8l10 67h267l77 -338l24 -105l202 443h259l-9 -67l-77 -8l-17 -466l76 -12l-8 -62h-276l9 62l75 12l16 293 l15 176l-24 -55l-236 -494h-85l-109 433l-28 118l-20 -124l-63 -347l73 -12l-9 -62h-245z" />
<glyph unicode="&#x25fc;" horiz-adv-x="920" d="M0 0v920h920v-920h-920z" />
</font>
</defs>
</svg>
